<svg width="51" height="36" viewBox="0 0 51 36" fill="none" xmlns="http://www.w3.org/2000/svg">
<path d="M5.26562 29.8672H5.71094C7.58594 29.8672 9.19531 29.6406 10.5391 29.1875C11.8984 28.7188 13.0156 28.0469 13.8906 27.1719C14.7656 26.2969 15.4141 25.2266 15.8359 23.9609C16.2578 22.6797 16.4688 21.2266 16.4688 19.6016V13.1328C16.4688 11.8984 16.3438 10.8125 16.0938 9.875C15.8594 8.9375 15.5156 8.16406 15.0625 7.55469C14.625 6.92969 14.1094 6.46094 13.5156 6.14844C12.9375 5.83594 12.2969 5.67969 11.5938 5.67969C10.8438 5.67969 10.1797 5.86719 9.60156 6.24219C9.02344 6.60156 8.53125 7.09375 8.125 7.71875C7.73438 8.34375 7.42969 9.0625 7.21094 9.875C7.00781 10.6719 6.90625 11.5078 6.90625 12.3828C6.90625 13.2578 7.00781 14.0938 7.21094 14.8906C7.41406 15.6719 7.71875 16.3672 8.125 16.9766C8.53125 17.5703 9.03906 18.0469 9.64844 18.4062C10.2578 18.75 10.9766 18.9219 11.8047 18.9219C12.6016 18.9219 13.3125 18.7734 13.9375 18.4766C14.5781 18.1641 15.1172 17.7578 15.5547 17.2578C16.0078 16.7578 16.3516 16.2031 16.5859 15.5938C16.8359 14.9844 16.9609 14.3672 16.9609 13.7422L19.1875 14.9609C19.1875 16.0547 18.9531 17.1328 18.4844 18.1953C18.0156 19.2578 17.3594 20.2266 16.5156 21.1016C15.6875 21.9609 14.7266 22.6484 13.6328 23.1641C12.5391 23.6797 11.3672 23.9375 10.1172 23.9375C8.52344 23.9375 7.10938 23.6484 5.875 23.0703C4.64062 22.4766 3.59375 21.6641 2.73438 20.6328C1.89062 19.5859 1.25 18.3672 0.8125 16.9766C0.375 15.5859 0.15625 14.0781 0.15625 12.4531C0.15625 10.7969 0.421875 9.24219 0.953125 7.78906C1.5 6.33594 2.27344 5.05469 3.27344 3.94531C4.28906 2.83594 5.5 1.96875 6.90625 1.34375C8.32812 0.703125 9.90625 0.382812 11.6406 0.382812C13.375 0.382812 14.9531 0.71875 16.375 1.39062C17.7969 2.0625 19.0156 3.01562 20.0312 4.25C21.0469 5.46875 21.8281 6.92969 22.375 8.63281C22.9375 10.3359 23.2188 12.2266 23.2188 14.3047V16.6484C23.2188 18.8672 22.9766 20.9297 22.4922 22.8359C22.0234 24.7422 21.3125 26.4688 20.3594 28.0156C19.4219 29.5469 18.25 30.8594 16.8438 31.9531C15.4531 33.0469 13.8359 33.8828 11.9922 34.4609C10.1484 35.0391 8.08594 35.3281 5.80469 35.3281H5.26562V29.8672ZM50.4062 15.9922V21.875H27.0156V15.9922H50.4062ZM41.9219 6.73438V31.5781H35.5234V6.73438H41.9219Z" fill="#EB4438"/>
</svg>
