<svg width="45" height="50" viewBox="0 0 45 50" fill="none" xmlns="http://www.w3.org/2000/svg">
<g id="Layer_1" clip-path="url(#clip0_31_87)">
<path id="Vector" d="M29.82 48.0324H30.2916C33.7662 48.0324 37.2409 48.0324 40.7162 48.0324C42.2302 48.0324 43.0891 47.0314 42.8041 45.5416C42.3864 43.3592 41.9312 41.1831 41.4916 39.0046C41.4034 38.5666 41.4557 38.1684 41.8461 37.8881C42.1834 37.6452 42.5699 37.5929 42.9009 37.8436C43.1125 38.0044 43.3273 38.266 43.3796 38.5158C43.8684 40.8567 44.3626 43.1976 44.7757 45.5525C45.1754 47.8317 43.3249 49.9735 41.0044 49.9789C36.072 49.9899 31.1396 49.9828 26.2072 49.9828C18.841 49.9828 11.4749 49.9508 4.10948 50.0008C1.65383 50.0172 -0.338796 47.9277 0.0492673 45.4408C0.468563 42.7564 0.823832 40.0611 1.20565 37.3704C1.53671 35.0404 1.86387 32.7097 2.19572 30.3806C2.51116 28.1662 2.83364 25.9534 3.14987 23.739C3.48405 21.3966 3.81356 19.0533 4.14852 16.7109C4.45382 14.5738 4.72789 12.4321 5.08159 10.3028C5.35722 8.64045 6.40038 7.60354 8.00573 7.14676C8.27979 7.06868 8.34929 6.96483 8.34772 6.70014C8.33757 4.86523 8.3407 3.02955 8.34304 1.19464C8.34304 0.324817 8.67567 0 9.55173 0C13.3129 0 17.0741 0 20.8345 0C21.6262 0 22.0041 0.372447 22.0065 1.17278C22.0111 3.00768 22.0119 4.84337 22.0041 6.67827C22.0033 6.94375 22.051 7.06868 22.3531 7.15457C23.96 7.61291 24.9876 8.65841 25.246 10.3293C25.6934 13.2207 26.0877 16.1198 26.5063 19.0159C26.5398 19.2462 26.5836 19.4742 26.632 19.7569C27.2566 19.2649 27.9008 18.9222 28.6449 18.7832C28.7253 18.7683 28.8175 18.5482 28.819 18.4224C28.8315 16.9904 28.8261 15.5592 28.8276 14.1272C28.8284 13.2277 29.1743 12.8873 30.0824 12.8865C31.8782 12.8865 33.6741 12.8849 35.47 12.8865C36.2719 12.8865 36.6342 13.2488 36.6365 14.0585C36.6404 15.503 36.6388 16.9483 36.6365 18.3928C36.6365 18.5934 36.6224 18.7605 36.9004 18.8214C38.6658 19.2072 39.6996 20.3198 40.0572 22.0743C40.5741 24.608 41.0817 27.1441 41.5962 29.6786C41.6844 30.1143 41.654 30.5149 41.2753 30.8085C40.9606 31.0528 40.5726 31.1364 40.2587 30.9029C40.0112 30.7187 39.7668 30.4095 39.7043 30.1167C39.1523 27.5369 38.6408 24.9477 38.1193 22.3616C37.9131 21.338 37.1534 20.6985 36.1134 20.697C33.8623 20.693 31.6104 20.6938 29.3593 20.697C28.3552 20.6985 27.6494 21.2865 27.3714 22.2391C27.134 23.0519 27.1809 23.8452 27.3043 24.665C27.7048 27.3268 28.0718 29.9933 28.4544 32.6574C28.9057 35.7978 29.3601 38.9383 29.8114 42.0787C29.9762 43.2241 30.1472 44.3688 30.2924 45.5166C30.4002 46.3716 30.2807 47.2 29.82 48.0308V48.0324ZM4.08372 30.9834C3.90101 32.2803 3.73704 33.5147 3.5473 34.7453C3.5067 35.0077 3.56057 35.1341 3.80028 35.2622C6.34494 36.6216 8.88258 37.9943 11.4226 39.363C16.4799 42.088 21.5372 44.8131 26.5945 47.5389C27.2925 47.9152 27.601 47.866 28.0187 47.1766C28.2108 46.8588 28.3505 46.4504 28.3459 46.0858C28.3365 45.4276 28.2123 44.7693 28.1077 44.1158C28.0874 43.9885 27.9594 43.8378 27.8407 43.7738C24.4918 41.9616 21.1374 40.1594 17.7846 38.3542C13.7111 36.1609 9.6384 33.9653 5.56491 31.772C5.08784 31.5151 4.6092 31.2629 4.08372 30.9834ZM4.96369 24.8025C4.78098 26.108 4.62248 27.3299 4.43118 28.5472C4.38667 28.8291 4.44757 28.9579 4.69822 29.0922C7.4373 30.5562 10.1678 32.0343 12.9022 33.5077C17.5121 35.9915 22.122 38.4744 26.7327 40.9574C27.0357 41.1206 27.3433 41.2744 27.7204 41.4696C27.6986 41.2526 27.6915 41.1269 27.6736 41.0019C27.4909 39.7284 27.291 38.4565 27.1317 37.1799C27.0903 36.8504 26.9919 36.6481 26.689 36.4865C23.6743 34.8773 20.6674 33.254 17.6589 31.633C14.4099 29.8832 11.1618 28.1318 7.91281 26.3828C6.95398 25.8667 5.99358 25.3545 4.96447 24.8032L4.96369 24.8025ZM26.7218 34.2909C26.4883 32.6886 26.2712 31.1715 26.0362 29.6575C26.019 29.5451 25.8879 29.4178 25.777 29.3577C23.5946 28.1732 21.4083 26.9973 19.2221 25.8199C15.6967 23.9217 12.1721 22.0243 8.64678 20.1277C7.73401 19.6366 6.81968 19.1486 5.87958 18.645C5.84757 18.7879 5.8179 18.8863 5.80306 18.987C5.63831 20.1192 5.49074 21.2544 5.30412 22.3827C5.25493 22.6794 5.36112 22.802 5.59068 22.9254C8.0885 24.2637 10.5832 25.6059 13.0779 26.9497C16.3854 28.7307 19.6906 30.5149 22.9981 32.2959C24.2099 32.9487 25.4241 33.5959 26.7225 34.2909H26.7218ZM6.73145 12.4555C6.54717 13.7524 6.38164 14.9877 6.19113 16.2182C6.14974 16.486 6.23017 16.6188 6.45816 16.739C7.41153 17.2419 8.35788 17.7595 9.30656 18.2702C14.121 20.8633 18.9355 23.4571 23.7508 26.0494C24.3637 26.3797 24.9806 26.7029 25.6552 27.0606C25.6364 26.8357 25.631 26.6819 25.6091 26.5312C25.4342 25.3092 25.2234 24.0911 25.0969 22.8645C25.0493 22.4015 24.8416 22.1875 24.473 21.99C19.094 19.1025 13.7197 16.2065 8.34382 13.3128C7.82224 13.0317 7.29753 12.7561 6.73145 12.4555ZM20.0185 7.01793V1.98092H10.3294V7.01715H20.0185V7.01793ZM13.772 42.9001C13.6861 42.8259 13.6533 42.7853 13.6104 42.7619C12.3767 42.0943 11.1446 41.422 9.90154 40.7716C9.78364 40.7099 9.56813 40.7388 9.44086 40.8067C7.07969 42.067 4.72398 43.3381 2.36984 44.6116C2.27302 44.6639 2.13013 44.7506 2.12388 44.8303C2.07703 45.4338 1.94039 46.0632 2.05751 46.6386C2.29332 47.8005 3.66364 48.3462 4.70134 47.7833C5.75231 47.2133 6.8064 46.6495 7.85894 46.0835C9.81487 45.0309 11.77 43.9776 13.772 42.9001ZM13.3059 13.7126C13.4043 13.7907 13.4574 13.8469 13.5214 13.8813C14.7433 14.5426 15.9645 15.2055 17.1943 15.8528C17.2943 15.9059 17.477 15.8895 17.5824 15.8333C19.5079 14.8073 21.4294 13.7743 23.3432 12.7257C23.4627 12.6601 23.5821 12.443 23.5681 12.3103C23.5033 11.7044 23.4049 11.1 23.2932 10.5003C23.1777 9.88116 22.7982 9.44469 22.2376 9.18702C22.09 9.11909 21.8479 9.12065 21.7058 9.19639C19.8124 10.199 17.9283 11.221 16.0418 12.2384C15.1423 12.7233 14.2436 13.2082 13.3067 13.7142L13.3059 13.7126ZM23.2807 48.0128C23.1613 47.9254 23.1074 47.877 23.0457 47.8434C20.7478 46.6043 18.4506 45.3628 16.1449 44.1385C16.0044 44.0643 15.7553 44.0658 15.614 44.1408C13.3184 45.3581 11.0322 46.5918 8.74516 47.8247C8.6663 47.8676 8.59836 47.9324 8.49061 48.0128H23.28H23.2807ZM17.8119 9.05428C17.7565 9.01368 17.7385 8.98869 17.7206 8.98869C14.7441 8.98713 11.7677 8.97308 8.79123 8.99884C8.06429 9.00509 7.52944 9.42204 7.18119 10.0662C7.06017 10.2903 7.07656 10.423 7.32955 10.5558C8.50233 11.1711 9.66729 11.8012 10.826 12.4422C11.0813 12.5835 11.282 12.5921 11.5436 12.4485C13.0349 11.631 14.5372 10.8337 16.034 10.0272C16.6228 9.70938 17.2084 9.38456 17.8112 9.05428H17.8119ZM30.8054 18.7145H34.6556V14.8659H30.8054V18.7145ZM23.9101 14.6527C22.3883 15.4733 20.9485 16.2495 19.4337 17.0662C21.2077 18.0219 22.8911 18.9292 24.6565 19.8802C24.4035 18.1062 24.1631 16.422 23.9108 14.6527H23.9101ZM2.46119 42.3379C4.22739 41.3869 5.8952 40.4882 7.64343 39.5473C6.12554 38.7298 4.69275 37.9576 3.20609 37.1564C2.95857 38.8797 2.71808 40.5522 2.46119 42.3379Z" fill="#0B2239"/>
<path id="Vector_2" d="M41.5291 35.3324C40.9981 35.3386 40.5601 34.9154 40.5476 34.3852C40.5351 33.8449 40.9849 33.3881 41.526 33.3936C42.0515 33.3983 42.4872 33.8379 42.4879 34.3626C42.4879 34.8943 42.0616 35.3253 41.5291 35.3324Z" fill="#0B2239"/>
</g>
<defs>
<clipPath id="clip0_31_87">
<rect width="44.8295" height="50" fill="white"/>
</clipPath>
</defs>
</svg>
