<svg width="64" height="70" viewBox="0 0 64 70" fill="none" xmlns="http://www.w3.org/2000/svg">
<g clip-path="url(#clip0_201_133)">
<path d="M8.04499 9.29168C6.33758 9.29168 4.72312 9.2616 3.11139 9.30672C2.50033 9.32449 2.1449 9.76604 2.06562 10.3798C2.03691 10.604 2.05195 10.8351 2.05195 11.062C2.05195 29.402 2.05195 47.7421 2.05195 66.0821C2.05195 67.6255 2.38277 67.9522 3.93981 67.9522C14.5794 67.9522 25.219 67.9522 35.8585 67.9522H36.7444C36.7444 67.6446 36.7444 67.3999 36.7444 67.1566C36.7444 65.2427 36.7307 63.3289 36.7485 61.4151C36.7649 59.5887 37.8749 58.4992 39.7026 58.491C41.6397 58.4828 43.5754 58.4896 45.5125 58.4896C45.7572 58.4896 46.0019 58.4896 46.3409 58.4896C46.3409 58.1738 46.3409 57.9319 46.3409 57.6899C46.3409 42.129 46.3409 26.5682 46.3409 11.0087C46.3409 9.66761 45.9376 9.26844 44.5815 9.26571C43.1954 9.26297 41.8092 9.26571 40.3369 9.26571C40.3369 9.92735 40.3438 10.5343 40.3369 11.1413C40.3096 13.1604 38.7717 14.7407 36.8195 14.7598C34.8784 14.7789 33.3022 13.2082 33.2502 11.1905C33.2338 10.5794 33.2475 9.96836 33.2475 9.26571C32.9263 9.26571 32.6624 9.26571 32.3986 9.26571C28.0692 9.26571 23.7412 9.26707 19.4118 9.2616C19.1193 9.2616 18.8131 9.2493 18.5369 9.16455C18.0339 9.01007 17.8288 8.61227 17.8835 8.10237C17.9354 7.6157 18.2129 7.30812 18.7078 7.24251C18.9552 7.2097 19.2081 7.21516 19.4583 7.21516C23.7644 7.2138 28.0706 7.21516 32.3767 7.21516C32.6433 7.21516 32.9112 7.21516 33.2475 7.21516C33.2475 5.95477 33.2311 4.77502 33.2516 3.59664C33.2844 1.62949 34.7799 0.0683458 36.6541 0.0136647C38.6596 -0.0451175 40.2918 1.49552 40.3342 3.51736C40.3588 4.72034 40.3383 5.92469 40.3383 7.21516C40.6404 7.21516 40.8837 7.21516 41.1271 7.21516C42.4257 7.21516 43.7244 7.19466 45.0231 7.222C46.9807 7.26438 48.3354 8.64234 48.3928 10.6068C48.3955 10.6983 48.3942 10.7886 48.3942 10.8802C48.3942 29.3569 48.3942 47.8336 48.3942 66.3104C48.3942 68.2324 47.4318 69.5284 45.7162 69.9221C45.4537 69.9822 45.1762 69.9973 44.9042 69.9973C31.0972 70.0014 17.2916 70.0014 3.48459 69.9986C1.41218 69.9986 0.00687352 68.6097 0.00550649 66.5346C3.83831e-05 47.9211 3.83832e-05 29.3077 0.00277244 10.6942C0.00277244 8.58903 1.34246 7.24661 3.45452 7.21927C4.75319 7.20286 6.05187 7.19466 7.35054 7.2261C7.87001 7.2384 8.0819 7.11264 8.05866 6.54669C8.01629 5.50091 8.02586 4.45104 8.0614 3.40389C8.12018 1.6459 9.41749 0.244692 11.144 0.028702C12.8364 -0.184554 14.4591 0.896764 14.9444 2.57821C15.025 2.85845 15.0701 3.15919 15.0715 3.45037C15.0811 6.07096 15.1016 8.69019 15.0688 11.3094C15.0455 13.1494 13.6812 14.5588 11.8317 14.7516C10.2145 14.9197 8.58497 13.7591 8.15982 12.1009C8.0655 11.7318 8.0655 11.3354 8.0532 10.9513C8.03679 10.4318 8.0491 9.91094 8.0491 9.29305L8.04499 9.29168ZM35.2953 7.32316C35.2953 8.52888 35.2898 9.73596 35.2967 10.9417C35.3035 12.008 35.8968 12.701 36.7867 12.7051C37.6753 12.7092 38.2809 12.0121 38.2836 10.9526C38.2891 8.56305 38.2905 6.17349 38.2836 3.78393C38.2809 2.73132 37.6616 2.0437 36.7621 2.06284C35.8886 2.08061 35.3049 2.74909 35.2967 3.77299C35.2857 4.95684 35.2939 6.13931 35.2939 7.32316H35.2953ZM13.0278 7.39698C13.0278 6.14752 13.0387 4.89669 13.0237 3.64722C13.0128 2.72175 12.4208 2.08334 11.5979 2.06284C10.7462 2.04097 10.1092 2.68894 10.1037 3.64722C10.0887 6.12428 10.0901 8.6027 10.1024 11.0798C10.1065 12.0353 10.7339 12.7079 11.5637 12.7079C12.3935 12.7079 13.0155 12.0326 13.0264 11.0798C13.0401 9.85216 13.0292 8.62457 13.0292 7.39835L13.0278 7.39698ZM46.33 62.0439C44.3341 64.0876 42.4298 66.0397 40.5625 67.9522C41.976 67.9522 43.4988 67.9672 45.0203 67.9454C45.7613 67.9358 46.2958 67.4628 46.3163 66.7164C46.36 65.199 46.33 63.6789 46.33 62.0425V62.0439ZM38.7935 66.417C40.7771 64.3911 42.6691 62.4608 44.5419 60.547C42.9138 60.547 41.2091 60.5402 39.5058 60.5511C38.9863 60.5538 38.799 60.897 38.7976 61.3686C38.7935 62.2804 38.7949 63.1908 38.7949 64.1026C38.7949 64.8422 38.7949 65.5818 38.7949 66.4184L38.7935 66.417Z" fill="#EB4438"/>
<path d="M24.1828 54.543C20.4481 54.543 16.712 54.5006 12.9773 54.5594C10.9254 54.5922 9.52826 53.1992 9.55834 51.1323C9.63626 45.6669 9.59661 40.2002 9.57611 34.7334C9.57064 33.4033 9.86592 32.1757 10.4647 30.9973C12.3812 27.2257 13.3423 23.2162 13.4106 18.9894C13.4243 18.1035 13.7619 17.759 14.656 17.7549C16.5233 17.7467 18.3921 17.7467 20.2594 17.7549C21.1043 17.759 21.4638 18.1227 21.4733 18.9579C21.4829 19.9148 21.4692 20.8718 21.4774 21.8273C21.4911 23.3338 22.567 24.4971 24.0338 24.5996C25.4186 24.6967 26.6981 23.6468 26.8417 22.1814C26.9415 21.1657 26.8895 20.1349 26.9018 19.111C26.9155 18.0516 27.1944 17.7577 28.2251 17.7536C30.0473 17.7481 31.8696 17.7467 33.6918 17.7536C34.5968 17.7577 34.9591 18.0734 34.9645 18.9743C34.996 23.4035 36.1388 27.5333 38.0923 31.4936C38.5557 32.4341 38.7526 33.5919 38.7649 34.6541C38.8291 40.1878 38.8004 45.7229 38.7922 51.258C38.7895 53.351 37.5715 54.5389 35.458 54.5403C31.7001 54.5444 27.9421 54.5403 24.1842 54.5403L24.1828 54.543ZM15.4789 19.8328C15.4584 20.0078 15.4393 20.1185 15.4325 20.2306C15.1727 24.4848 14.0559 28.497 12.1448 32.3083C11.8221 32.9522 11.6622 33.745 11.6554 34.4709C11.6102 38.7292 11.6321 42.9889 11.6349 47.2472C11.6349 47.4454 11.6581 47.6436 11.6704 47.8446H36.7458C36.7458 47.5247 36.7458 47.2554 36.7458 46.9861C36.7458 43.0463 36.7335 39.1065 36.7526 35.1668C36.7581 33.9118 36.4997 32.7553 35.9269 31.6275C34.5285 28.873 33.6262 25.953 33.2188 22.8868C33.0849 21.8793 32.9892 20.8677 32.8757 19.8602H28.8963C28.8963 20.7309 28.9647 21.5539 28.884 22.3632C28.6311 24.8867 26.4698 26.7609 24.0064 26.6543C21.4433 26.5422 19.4501 24.4684 19.4283 21.8888C19.4228 21.2135 19.4283 20.5382 19.4283 19.8355H15.4789V19.8328ZM25.2272 52.4405H30.0514C30.0514 52.1671 30.0514 51.9443 30.0514 51.7228C30.056 50.539 29.4673 49.9471 28.2852 49.9471H25.2272V52.4405ZM23.1015 50.0004H18.3647V52.4515H23.1015V50.0004ZM11.6349 49.9881C11.6349 50.5581 11.5446 51.1008 11.6663 51.5916C11.7483 51.921 12.1133 52.4063 12.3785 52.4241C13.6581 52.5116 14.9485 52.4638 16.2445 52.4638V49.9881H11.6349ZM32.1348 52.4884C33.4007 52.4884 34.5818 52.5239 35.7574 52.4638C36.0595 52.4487 36.5353 52.1808 36.6009 51.9388C36.7512 51.3852 36.7102 50.7755 36.7157 50.1877C36.7157 50.1097 36.538 49.9648 36.4409 49.9635C35.0151 49.9484 33.5893 49.9539 32.1334 49.9539V52.4884H32.1348Z" fill="#EB4438"/>
<path d="M55.6654 55.567H61.3659V15.1235H55.6654C55.6654 15.3819 55.6654 15.6252 55.6654 15.8672C55.6654 17.6662 55.6695 19.4665 55.6627 21.2655C55.6599 22.0352 55.2949 22.4467 54.6524 22.4467C54.0441 22.4467 53.623 22.0325 53.6217 21.3339C53.6107 17.5759 53.5889 13.8166 53.6326 10.0587C53.6518 8.4319 54.8985 7.26582 56.5403 7.22618C57.8157 7.19474 59.0912 7.20567 60.3666 7.21934C62.3009 7.24122 63.4574 8.40592 63.4574 10.343C63.4615 20.2526 63.4602 30.1608 63.4602 40.0704C63.4602 45.4237 63.467 50.7769 63.4479 56.1302C63.4465 56.5923 63.3426 57.0803 63.1704 57.5095C62.4199 59.3851 61.6174 61.2415 60.8519 63.1116C60.424 64.1574 59.7173 64.8095 58.5443 64.8067C57.3687 64.804 56.6729 64.1314 56.245 63.0952C55.4658 61.206 54.6552 59.3291 53.8965 57.4316C53.7242 57.0024 53.6271 56.5116 53.6271 56.0482C53.6121 46.2986 53.6148 36.5489 53.6189 26.7993C53.6189 26.5067 53.6244 26.2019 53.7064 25.9257C53.8541 25.4295 54.2437 25.178 54.7481 25.2313C55.2771 25.2873 55.6203 25.6004 55.6572 26.1663C55.6722 26.3933 55.6654 26.6216 55.6654 26.8499C55.6654 36.121 55.6654 45.3922 55.6654 54.6634V55.5656V55.567ZM61.4069 12.9827C61.4069 11.993 61.4124 11.0839 61.4055 10.1749C61.4014 9.5966 61.087 9.28219 60.5183 9.27535C59.1992 9.26168 57.88 9.26988 56.5608 9.27399C56.0427 9.27535 55.7173 9.58157 55.6941 10.0587C55.6462 11.0251 55.6804 11.9957 55.6804 12.9814H61.4083L61.4069 12.9827ZM56.2177 57.6914C56.9162 59.355 57.5724 60.9627 58.2723 62.5511C58.4281 62.9066 58.7398 62.8218 58.8793 62.4978C59.5518 60.9203 60.2026 59.3332 60.8861 57.6914H56.219H56.2177Z" fill="#EB4438"/>
<path d="M59.5942 38.6253C59.5942 39.3293 59.6106 40.0333 59.5915 40.7373C59.5723 41.4577 59.1376 41.9266 58.5416 41.9198C57.9237 41.9116 57.5519 41.4755 57.5478 40.7141C57.5396 39.2842 57.5382 37.8529 57.5491 36.4216C57.5546 35.7203 57.9401 35.2924 58.5334 35.2829C59.1321 35.2733 59.5587 35.6862 59.586 36.3765C59.6161 37.1243 59.5928 37.8748 59.5942 38.6239V38.6253Z" fill="#EB4438"/>
<path d="M24.2292 43.2829C24.5736 42.8454 24.806 42.4681 25.1177 42.177C25.6057 41.7204 26.1485 41.7518 26.5681 42.1893C26.9359 42.572 26.9591 43.164 26.5558 43.6041C26.0186 44.1892 25.4581 44.7565 24.8662 45.2856C24.4192 45.6848 23.9011 45.6738 23.4554 45.2528C22.8936 44.7237 22.344 44.1797 21.815 43.6164C21.3693 43.1407 21.3844 42.5693 21.8068 42.1578C22.2292 41.745 22.7733 41.7559 23.2695 42.1934C23.4226 42.3287 23.5675 42.475 23.7028 42.6267C23.8382 42.7785 23.9585 42.9439 24.2305 43.2829H24.2292Z" fill="#EB4438"/>
<path d="M24.1882 30.8716C24.5655 30.4245 24.7924 30.1074 25.0672 29.8395C25.5115 29.4047 26.139 29.3856 26.5368 29.7574C26.9359 30.1306 26.9592 30.7827 26.5436 31.2284C26.0173 31.7943 25.4718 32.3452 24.9045 32.8715C24.4329 33.309 23.9203 33.3035 23.4418 32.8579C22.8759 32.3302 22.3263 31.7834 21.8027 31.2147C21.368 30.7417 21.3844 30.2345 21.7836 29.8108C22.1677 29.402 22.7897 29.3733 23.2477 29.793C23.5471 30.0678 23.7877 30.4081 24.1868 30.8716H24.1882Z" fill="#EB4438"/>
<path d="M24.2961 36.9973C24.5559 36.6624 24.7732 36.3083 25.0617 36.0253C25.5374 35.5592 26.169 35.5674 26.5736 35.9939C26.9509 36.3903 26.9372 37.0041 26.5053 37.4593C26.0063 37.9856 25.4923 38.501 24.9646 39C24.426 39.5099 23.9352 39.5249 23.4062 39.0301C22.8594 38.5202 22.3276 37.9898 21.8191 37.4402C21.3693 36.9535 21.3816 36.4013 21.7972 35.9816C22.2019 35.5742 22.776 35.5769 23.2572 35.998C23.4103 36.132 23.5484 36.2851 23.6946 36.4272C23.8396 36.568 23.9872 36.7061 24.2961 36.9987V36.9973Z" fill="#EB4438"/>
</g>
<defs>
<clipPath id="clip0_201_133">
<rect width="63.4615" height="70" fill="white"/>
</clipPath>
</defs>
</svg>
