<svg width="81" height="80" viewBox="0 0 81 80" fill="none" xmlns="http://www.w3.org/2000/svg">
<g clip-path="url(#clip0_217_21)">
<path d="M2.37206 60.8062C4.95877 57.6392 8.12448 55.9862 12.0459 55.9912C15.9335 55.9962 19.0754 57.6492 21.6696 60.5931C21.6696 60.375 21.6696 60.157 21.6696 59.9402C21.6696 44.0402 21.6734 28.1402 21.6671 12.2402C21.6658 7.55429 18.8222 3.81333 14.3907 2.61648C9.01679 1.16647 3.25059 4.94251 2.51994 10.4631C2.32945 11.9031 2.41342 13.3794 2.37206 14.8394C2.34825 15.6967 1.81436 16.2443 1.06116 16.1604C0.497197 16.0977 0.0573056 15.7505 0.0410133 15.2179C-0.0529805 12.3154 -0.095591 9.44168 1.22283 6.69706C5.00639 -1.1746 16.1202 -2.38148 21.4403 4.54273C22.8878 6.42761 23.7588 8.53182 23.9844 10.9067C23.9994 11.0671 24.2425 11.2601 24.4217 11.3341C24.5997 11.408 24.8328 11.3529 25.0421 11.3529C41.7517 11.3529 58.4613 11.3566 75.1709 11.3466C76.7613 11.3466 78.1373 11.7752 79.1725 13.0348C79.8417 13.8494 80.2152 14.7855 80.2152 15.8533C80.2152 35.7437 80.2177 55.634 80.2115 75.5243C80.2115 77.8829 78.2664 79.8756 75.9078 79.9834C75.6371 79.9959 75.3651 79.9959 75.0932 79.9959C54.1852 79.9959 33.2772 80.0097 12.3692 79.9872C6.95394 79.9821 3.12276 77.4218 0.90325 72.494C0.292917 71.1342 0.00717556 69.6754 0.00717556 68.1703C0.00842881 52.4169 0.00717556 36.6623 0.00717556 20.9089C0.00717556 19.9489 0.447067 19.4088 1.2103 19.4213C1.94345 19.4338 2.36955 19.9702 2.36955 20.9014C2.37081 33.8976 2.36955 46.8926 2.36955 59.8888C2.36955 60.1357 2.36955 60.3813 2.36955 60.8049L2.37206 60.8062ZM66.3054 13.7278C66.4658 14.0135 66.5736 14.2278 66.7027 14.4309C67.7529 16.0877 68.8495 17.7181 69.8483 19.405C70.7995 21.0117 70.8559 22.7474 69.9686 24.3742C69.0813 26.0021 68.0173 27.5349 67.0085 29.0939C66.6513 29.6466 65.9407 29.7682 65.4005 29.4348C64.8854 29.1177 64.7213 28.4848 65.017 27.897C65.1286 27.674 65.2664 27.4622 65.4005 27.2516C66.1299 26.1074 66.8505 24.9569 67.5962 23.824C68.3971 22.6083 68.3945 21.4177 67.6037 20.1958C66.3104 18.1981 65.0333 16.1904 63.7663 14.1765C63.542 13.8193 63.2863 13.6789 62.8552 13.6827C60.2033 13.704 57.5502 13.6927 54.897 13.6952C54.7003 13.6952 54.5048 13.7178 54.214 13.7353C54.3782 14.0236 54.481 14.2228 54.6013 14.4121C55.545 15.8897 56.4849 17.3697 57.4386 18.8411C58.8084 20.9565 58.816 23.057 57.4336 25.1737C56.4298 26.7115 55.4572 28.2705 54.4684 29.8183C53.7528 30.9399 53.7704 32.0491 54.4897 33.1657C55.4623 34.6746 56.3997 36.2061 57.3885 37.7037C58.8097 39.8543 58.826 41.9823 57.4148 44.1417C56.4097 45.6794 55.4334 47.236 54.4496 48.7862C53.7666 49.8628 53.7616 50.9493 54.4421 52.0271C55.4347 53.5975 56.4273 55.1678 57.4399 56.7256C58.8172 58.8436 58.8059 60.9453 57.4311 63.0582C56.5087 64.4757 55.6427 65.9294 54.684 67.3218C53.7152 68.7267 53.7628 70.0326 54.7103 71.4337C55.9736 73.2998 57.1592 75.2185 58.3548 77.1297C58.5791 77.4894 58.8185 77.6448 59.2521 77.6423C61.9466 77.6235 64.6411 77.6336 67.3355 77.631C67.506 77.631 67.6777 77.5985 67.9371 77.5709C67.7416 77.2551 67.6025 77.027 67.4596 76.8014C66.4633 75.2336 65.4331 73.6871 64.4769 72.0942C63.3966 70.2945 63.3953 68.4322 64.4669 66.6313C65.4055 65.0534 66.4169 63.5169 67.4208 61.9792C68.4848 60.35 68.4961 59.4514 67.4446 57.8259C66.4921 56.3546 65.5447 54.8783 64.6135 53.3932C63.3577 51.3905 63.3753 49.3803 64.6423 47.3863C65.571 45.9238 66.4996 44.4613 67.4433 43.0087C68.4898 41.3996 68.486 40.4809 67.4233 38.8542C66.5448 37.5082 65.6675 36.161 64.8403 34.7837C64.6574 34.4791 64.5458 33.9853 64.6661 33.6833C64.794 33.3587 65.1963 33.0542 65.5459 32.9289C66.0435 32.7496 66.4771 33.0203 66.7628 33.4677C67.7754 35.0506 68.8207 36.6122 69.7831 38.2251C70.8597 40.0273 70.8509 41.8896 69.7694 43.6893C68.8019 45.2984 67.7892 46.8838 66.7428 48.4416C65.8404 49.7851 65.8467 51.0546 66.7465 52.3956C67.793 53.9546 68.8106 55.5362 69.7744 57.1479C70.8509 58.9476 70.8597 60.8112 69.7781 62.6121C68.768 64.294 67.6827 65.9294 66.6225 67.58C65.8993 68.7066 65.8191 69.8446 66.546 70.9926C67.8757 73.0905 69.2104 75.1847 70.5639 77.2676C70.6767 77.4418 70.9462 77.6122 71.1454 77.616C72.6907 77.6411 74.2359 77.6436 75.7812 77.6135C76.6886 77.596 77.4681 77.0145 77.7125 76.1848C77.8278 75.7925 77.8553 75.3639 77.8553 74.9516C77.8616 55.4385 77.8616 35.9241 77.8604 16.411C77.8604 14.5148 77.0482 13.6977 75.1571 13.6952C72.4413 13.6927 69.7268 13.694 67.011 13.6952C66.8092 13.6952 66.6087 13.7128 66.3041 13.7278H66.3054ZM44.4048 77.5784C43.2456 75.7612 42.1377 74.0455 41.0499 72.316C39.8016 70.3334 39.8129 68.3432 41.0674 66.3656C42.0851 64.7614 43.109 63.161 44.1291 61.5594C44.841 60.4415 44.8359 59.3211 44.1266 58.2057C43.0964 56.5852 42.0512 54.9735 41.0323 53.3456C39.8029 51.3817 39.8179 49.4066 41.0549 47.449C42.0913 45.8073 43.1516 44.1805 44.1805 42.5338C44.8397 41.4798 44.8322 40.3957 44.173 39.343C43.1641 37.7338 42.1402 36.1334 41.1125 34.5355C39.8167 32.5215 39.7891 30.5038 41.0749 28.4773C42.0826 26.8919 43.0902 25.3066 44.1053 23.725C44.8334 22.5895 44.851 21.4578 44.1228 20.3174C42.8195 18.2758 41.5098 16.2393 40.224 14.1877C39.9971 13.8256 39.7515 13.6802 39.3191 13.6839C36.646 13.7027 33.9715 13.6927 31.2983 13.6952C31.1204 13.6952 30.9424 13.724 30.6705 13.7466C30.8121 13.996 30.9036 14.1752 31.0113 14.3444C32.0302 15.9473 33.0692 17.5377 34.0693 19.1531C35.2473 21.0568 35.2335 22.9868 34.0555 24.8855C33.0654 26.4821 32.0528 28.065 31.0239 29.6366C30.2105 30.8785 30.2143 32.0791 31.0276 33.3199C32.0578 34.8914 33.0667 36.4756 34.058 38.0722C35.2386 39.9734 35.2411 41.9021 34.0655 43.8046C33.0779 45.4025 32.0703 46.9891 31.0364 48.5569C30.2017 49.8214 30.2143 51.0371 31.0489 52.2928C31.8811 53.5448 32.6719 54.8231 33.4752 56.0939C33.5742 56.2506 33.672 56.4185 33.7209 56.5952C33.8788 57.1542 33.6168 57.7232 33.1143 57.9663C32.5704 58.2295 31.9387 58.034 31.5477 57.4337C30.7507 56.2092 29.9912 54.9597 29.1866 53.7403C27.6652 51.4318 27.6614 49.4266 29.1828 47.0956C30.1065 45.6794 30.985 44.2332 31.9237 42.827C32.7797 41.5437 32.7621 40.3155 31.9099 39.0397C30.96 37.616 30.0764 36.1485 29.1302 34.7223C27.6714 32.5241 27.699 30.3634 29.1628 28.1778C30.1153 26.7553 30.9963 25.2865 31.9413 23.8591C32.7596 22.6221 32.7696 21.4253 31.9575 20.1795C30.6466 18.1681 29.3784 16.129 28.0612 14.1226C27.9208 13.9095 27.5774 13.7316 27.3155 13.714C26.5247 13.6614 25.7289 13.694 24.9356 13.6952C24.3232 13.6952 24.0165 14.0027 24.0157 14.6176C24.0157 26.0059 24.0157 37.3929 24.0157 48.7812C24.0157 55.07 23.9981 61.3601 24.0232 67.6489C24.0345 70.6016 23.2111 73.2547 21.3325 75.5369C20.746 76.2487 20.0228 76.8465 19.2784 77.5772H32.2884C32.0566 77.1949 31.8798 76.8941 31.6919 76.5996C30.7607 75.1383 29.8045 73.6933 28.9009 72.2145C27.7241 70.287 27.7554 68.3407 28.9435 66.422C29.5049 65.5171 30.0915 64.6286 30.6667 63.7325C31.084 63.0833 31.4801 62.4178 31.9262 61.7887C32.2922 61.2749 32.91 61.1734 33.4289 61.4766C33.9314 61.7699 34.1357 62.3802 33.9076 62.9467C33.8387 63.1197 33.7372 63.2813 33.6369 63.4392C32.7496 64.8291 31.8648 66.2202 30.97 67.6063C30.2556 68.7129 30.1804 69.8421 30.8873 70.965C32.2107 73.0667 33.5517 75.1584 34.914 77.2363C35.043 77.4343 35.3651 77.616 35.5995 77.6185C38.3779 77.6448 41.1551 77.6361 43.9336 77.6336C44.0527 77.6336 44.173 77.6072 44.4048 77.5809V77.5784ZM55.8495 77.6336C55.7054 77.3679 55.6377 77.2212 55.5512 77.0859C54.5211 75.4654 53.4734 73.8563 52.4595 72.2245C51.2651 70.2995 51.2839 68.3582 52.4858 66.4408C53.4947 64.8316 54.5211 63.2325 55.5462 61.6333C56.3019 60.4527 56.2919 59.291 55.5287 58.1117C54.4734 56.4824 53.4107 54.8557 52.4043 53.1964C51.2877 51.3554 51.2877 49.4655 52.4093 47.6245C53.4082 45.9852 54.4534 44.3723 55.5011 42.7631C56.2957 41.5437 56.3032 40.3569 55.5061 39.1349C54.4571 37.5258 53.4094 35.9153 52.4131 34.2748C51.2827 32.4125 51.2839 30.5101 52.4319 28.6503C53.452 26.9985 54.5123 25.3717 55.5575 23.7363C56.2819 22.6021 56.3044 21.4553 55.5838 20.3186C54.2754 18.2558 52.9432 16.2092 51.6449 14.1414C51.4243 13.7917 51.1799 13.6827 50.7814 13.6852C48.3162 13.7015 45.8523 13.6927 43.3872 13.6952C43.2092 13.6952 43.0313 13.7228 42.7618 13.7441C42.8947 13.9759 42.9774 14.1351 43.0739 14.2867C44.0928 15.8897 45.1267 17.4838 46.1306 19.0967C47.3399 21.0393 47.3287 23.0019 46.1168 24.9406C45.0991 26.5699 44.0564 28.1815 43.0225 29.8007C42.3081 30.9186 42.3106 32.034 43.0225 33.1519C44.0539 34.7711 45.0941 36.3866 46.1143 38.0133C47.3437 39.9759 47.3312 41.951 46.098 43.9073C45.0628 45.5503 44.0013 47.1758 42.9724 48.8213C42.3132 49.8741 42.3144 50.9581 42.9749 52.0121C44.0063 53.6564 45.0653 55.2843 46.1005 56.9261C47.3337 58.8849 47.3424 60.8588 46.113 62.8214C45.1054 64.4318 44.0827 66.0322 43.0538 67.6289C42.3056 68.7894 42.3094 69.9261 43.0576 71.0866C44.3472 73.0868 45.6293 75.0907 46.8888 77.1097C47.1269 77.4932 47.3788 77.6486 47.835 77.6423C49.6522 77.6173 51.4694 77.6323 53.2866 77.6323C54.0987 77.6323 54.9121 77.6323 55.8495 77.6323V77.6336ZM12.0096 77.6336C17.3309 77.6448 21.6558 73.3374 21.6671 68.0161C21.6784 62.7061 17.3472 58.3347 12.0597 58.3185C6.7647 58.3022 2.3871 62.6472 2.37457 67.9334C2.36078 73.3023 6.65316 77.6235 12.0096 77.6348V77.6336Z" fill="#EB4438"/>
<path d="M18.2247 68.0227C18.2046 71.4716 15.4399 74.22 12.001 74.21C8.55709 74.2 5.76861 71.3776 5.78992 67.9249C5.81247 64.4935 8.63479 61.759 12.1301 61.7815C15.5164 61.8028 18.2435 64.5951 18.2234 68.0227H18.2247ZM12.0349 71.8526C14.1817 71.8439 15.8823 70.1369 15.8823 67.9889C15.8823 65.8558 14.1566 64.1201 12.0311 64.1138C9.87927 64.1088 8.14477 65.8558 8.15229 68.0214C8.15981 70.147 9.89682 71.8602 12.0336 71.8526H12.0349Z" fill="#EB4438"/>
</g>
<defs>
<clipPath id="clip0_217_21">
<rect width="80.2168" height="80" fill="white"/>
</clipPath>
</defs>
</svg>
