<svg width="76" height="80" viewBox="0 0 76 80" fill="none" xmlns="http://www.w3.org/2000/svg">
<g clip-path="url(#clip0_217_227)">
<path d="M50.2567 77.5897C50.5894 75.1185 50.9174 72.677 51.2455 70.2355C51.7985 66.1147 52.3499 61.994 52.9013 57.8748C53.2153 55.5317 53.5152 53.1854 53.8495 50.8454C53.9791 49.9394 54.4399 49.5067 55.1085 49.5458C55.763 49.5849 56.1363 50.03 56.2519 50.8876C57.2782 58.5105 58.3076 66.1319 59.3339 73.7548C59.5042 75.0154 59.6604 76.2791 59.8291 77.5881H73.2754V76.7493C73.2754 71.985 73.2723 67.2206 73.2816 62.4548C73.2816 62.1252 73.2613 61.68 73.4503 61.4925C73.7643 61.1817 74.2751 60.8224 74.6406 60.8786C75.0062 60.9364 75.3264 61.4566 75.6044 61.8206C75.7075 61.9549 75.6373 62.2251 75.6373 62.4329C75.6373 67.7439 75.6388 73.055 75.6373 78.3676C75.6373 79.6454 75.2873 79.9968 74.0299 79.9968C69.0828 79.9968 64.1357 79.9968 59.1886 79.9968C58.0827 79.9968 57.7375 79.7438 57.5828 78.6425C57.1189 75.3497 56.6877 72.0521 56.2472 68.7546C55.8692 65.9226 55.4959 63.089 55.0007 60.2382C54.8476 61.2785 54.682 62.3173 54.543 63.3576C53.8541 68.5094 53.1746 73.6611 52.4889 78.8112C52.3811 79.6204 51.9656 79.9906 51.1236 79.9922C46.0203 79.9984 40.9171 79.9984 35.8138 79.9922C34.9156 79.9922 34.4782 79.5641 34.4173 78.6738C34.4016 78.441 34.4126 78.2051 34.4126 77.9708C34.4126 69.6387 34.4126 61.3082 34.4126 52.9761V51.8983C34.0111 51.8983 33.7065 51.8983 33.4004 51.8983C28.7657 51.8983 24.131 51.8983 19.4979 51.8983C18.1795 51.8983 17.8249 51.5484 17.8234 50.2456C17.8218 46.1327 17.8187 42.0182 17.8296 37.9052C17.8296 37.5741 17.8077 37.1304 17.9983 36.9399C18.3092 36.6275 18.8137 36.2697 19.1824 36.3228C19.5479 36.3744 19.8994 36.8711 20.1493 37.246C20.2836 37.4491 20.1993 37.8037 20.1993 38.0896C20.2008 41.6042 20.1993 45.1189 20.1993 48.6335C20.1993 48.9116 20.1993 49.1912 20.1993 49.5036H34.4126C34.4126 49.1912 34.4126 48.9147 34.4126 48.6367C34.4126 45.903 34.4095 43.1694 34.4141 40.4358C34.4173 39.1502 34.8109 38.7612 36.0981 38.7612C41.6434 38.7612 47.1888 38.7612 52.7357 38.7612C53.045 38.7612 53.3543 38.7612 53.7885 38.7612V37.8193C53.7885 33.0019 53.7885 28.186 53.7885 23.3686C53.7885 23.1343 53.776 22.8984 53.801 22.6656C53.926 21.5097 54.8695 21.0614 55.8161 21.7425C57.2938 22.8047 58.745 23.9059 60.2071 24.99C60.457 25.1743 60.7116 25.3524 60.8897 25.4805C63.6733 22.7 66.4288 19.9461 69.2281 17.1484C69.1328 17.0484 68.9453 16.8422 68.7485 16.6454C64.773 12.6684 60.7429 8.74289 56.8424 4.69244C54.8679 2.64144 52.5451 2.13845 49.8865 2.42587C49.1507 9.57235 42.8556 14.3304 36.4995 14.0649C31.1416 13.8399 25.1854 10.0175 24.1341 2.42743C21.4771 2.13533 19.1558 2.64456 17.1814 4.69088C13.2606 8.75695 9.21479 12.7027 5.21588 16.6938C5.0503 16.8579 4.84254 16.9797 4.7004 17.089C7.54493 19.9195 10.3004 22.6641 13.134 25.4852C14.3134 24.6136 15.6021 23.6638 16.8893 22.7109C17.3501 22.3704 17.7953 22.008 18.2701 21.6925C19.1917 21.0786 20.1743 21.5644 20.1821 22.6781C20.2087 25.9851 20.1993 29.292 20.1837 32.5973C20.1805 33.3705 19.6619 33.886 18.9996 33.8704C18.3498 33.8548 17.8327 33.3159 17.8265 32.5567C17.8077 30.3698 17.8187 28.1829 17.8187 25.996C17.8187 25.7164 17.8187 25.4368 17.8187 24.9916C16.4753 25.9819 15.2506 26.8832 14.0275 27.7877C12.9809 28.5625 12.5951 28.5406 11.6797 27.6299C10.83 26.7848 9.95365 25.9647 9.15074 25.0791C8.70555 24.5886 8.36189 24.6464 7.90577 25.0119C6.81076 25.8898 6.37025 27.0894 6.25934 28.4219C6.19217 29.2232 6.2281 30.0355 6.25934 30.8415C6.2859 31.5351 6.4546 32.0803 7.11536 32.5817C8.70867 33.7907 10.163 35.181 11.6922 36.4759C12.1655 36.8774 12.3827 37.3273 12.3795 37.9583C12.3624 42.8523 12.3733 47.7479 12.367 52.6434C12.367 53.704 11.9718 54.0805 10.8971 54.0821C7.74644 54.0867 4.59574 54.0867 1.4466 54.0821C0.396884 54.0805 0.00167987 53.6744 0.000117797 52.6075C-0.00300635 47.7119 -0.0186271 42.8179 0.0282351 37.924C0.0329213 37.4538 0.337526 36.8789 0.684306 36.5384C1.66841 35.5762 2.73687 34.6952 3.79752 33.8142C4.14742 33.5236 4.20053 33.2503 4.12868 32.8082C3.80064 30.7978 3.66005 28.7749 4.14117 26.7645C4.52857 25.14 5.38302 23.8122 6.817 22.8281C6.62643 22.6141 6.48428 22.4391 6.32651 22.2798C5.07685 21.0255 3.82407 19.7758 2.57285 18.523C1.5372 17.4858 1.53407 17.0109 2.54786 15.994C3.19143 15.3489 3.83657 14.7053 4.48014 14.0602C8.19944 10.3409 11.9344 6.63878 15.6302 2.89605C17.5688 0.934091 19.8494 -0.0109628 22.6142 -2.82808e-05C32.2741 0.0358994 41.9324 0.026527 51.5923 0.00622001C54.2087 -2.82809e-05 56.4003 0.905974 58.2389 2.74922C62.6517 7.17301 67.074 11.5874 71.4915 16.0065C72.4912 17.0063 72.4881 17.4749 71.4806 18.4824C68.4252 21.5394 65.3697 24.5948 62.3112 27.6502C61.4349 28.525 61.0319 28.5484 60.0306 27.8096C58.8044 26.9036 57.575 26.0022 56.2488 25.0275V38.7628H57.1954C62.7673 38.7628 68.3392 38.7628 73.9112 38.7628C75.2905 38.7628 75.6373 39.0971 75.6373 40.4389C75.6388 45.8812 75.6373 51.3219 75.6373 56.7641C75.6373 56.9469 75.6404 57.1297 75.6279 57.3109C75.5826 57.9904 75.178 58.3481 74.5391 58.4277C73.9346 58.5027 73.3816 58.0294 73.2941 57.3827C73.252 57.075 73.2754 56.7594 73.2754 56.447C73.2754 53.2979 73.2754 50.1488 73.2754 46.9403H36.865V77.5944H50.2567V77.5897ZM47.3169 2.41494H26.6616C27.0052 7.60414 32.1117 11.9936 37.404 11.6952C42.6478 11.4 47.4981 6.8809 47.3169 2.41494ZM2.39478 51.6749H9.95521C9.97708 51.5515 10.0021 51.4765 10.0021 51.4031C10.0052 47.1386 10.0083 42.8742 10.0005 38.6097C10.0005 38.4192 9.95833 38.163 9.83337 38.0489C8.99922 37.2882 8.13852 36.5587 7.16066 35.7105C7.26844 36.3869 7.36529 36.868 7.4184 37.3554C7.50432 38.1333 7.10443 38.6941 6.43117 38.7816C5.70793 38.8737 5.2315 38.5066 5.07373 37.7131C4.97532 37.221 4.89878 36.7243 4.78943 36.1057C4.07713 36.7165 3.49291 37.2648 2.85715 37.749C2.45882 38.0521 2.34635 38.3926 2.34791 38.8753C2.3651 42.8789 2.35729 46.884 2.35885 50.8876C2.35885 51.1407 2.37915 51.3937 2.39165 51.6749H2.39478ZM64.759 44.4691V41.1778H45.3549V44.4691H64.759ZM73.227 44.4706V41.1903H67.2411V44.4706H73.227ZM42.8962 41.1856H36.8932V44.4597H42.8962V41.1856Z" fill="#EB4438"/>
<path d="M37.1041 3.59429C37.7805 3.59429 38.4568 3.57867 39.1316 3.59898C39.8752 3.62241 40.3251 4.0676 40.336 4.74398C40.3469 5.44535 39.8658 5.93116 39.0957 5.94053C37.718 5.95771 36.3402 5.95459 34.9625 5.94053C34.1861 5.93272 33.6753 5.46097 33.6628 4.78459C33.6503 4.09572 34.1393 3.61773 34.9203 3.59742C35.6482 3.57867 36.3762 3.59273 37.1041 3.59429Z" fill="#EB4438"/>
</g>
<defs>
<clipPath id="clip0_217_227">
<rect width="75.6621" height="80" fill="white"/>
</clipPath>
</defs>
</svg>
