<svg width="70" height="70" viewBox="0 0 70 70" fill="none" xmlns="http://www.w3.org/2000/svg">
<g clip-path="url(#clip0_201_38)">
<path d="M3.06747 31.9683C2.4855 31.7582 1.97572 31.6477 1.54034 31.4049C0.40483 30.7726 7.27251e-05 29.7235 7.27251e-05 28.4698C0.00444848 25.0425 0.00116666 21.6152 0.00116666 18.1879C0.00116666 14.9608 -0.00539696 11.7337 0.00444848 8.50766C0.00991817 6.82409 0.781144 5.73781 2.26015 5.28383C2.43299 5.23132 2.62224 5.16787 2.79399 5.18866C3.50833 5.27508 3.80369 4.88454 4.13188 4.29819C5.68308 1.52178 8.116 0.113879 11.2742 0.0307395C13.5879 -0.0305211 15.9048 0.0187062 18.2196 0.0187062C26.0402 0.0187062 33.8618 0.0187062 41.6824 0.0187062C45.2585 0.0187062 47.8905 1.57866 49.5445 4.77187C49.6364 4.94799 49.9132 5.11974 50.1134 5.13287C50.8211 5.17662 51.5344 5.13724 52.2455 5.15475C54.1784 5.20288 55.4441 6.48826 55.4463 8.42671C55.4529 15.1544 55.4529 21.8811 55.4463 28.6088C55.4441 30.5319 54.15 31.8206 52.2181 31.8556C51.5617 31.8676 50.9043 31.8851 50.2501 31.8479C49.8388 31.825 49.643 31.9814 49.4658 32.3413C48.3456 34.6123 46.5449 36.0716 44.1 36.7225C43.1187 36.984 43.1122 36.9654 43.1144 38.0145C43.1144 38.4695 43.122 38.9257 43.1308 39.3808C43.1308 39.4125 43.1625 39.4431 43.2139 39.5383C43.3933 39.5383 43.6077 39.5383 43.821 39.5383C47.2483 39.5383 50.6757 39.5328 54.103 39.5416C55.5141 39.5449 56.7951 39.9277 57.8595 40.909C58.855 41.8279 59.472 42.9492 59.5048 44.3046C59.5573 46.5275 59.5475 48.7525 59.5278 50.9765C59.5234 51.4754 59.6569 51.634 60.1645 51.6263C61.4028 51.6066 62.6477 51.5804 63.8795 51.6821C66.6264 51.9086 68.6359 53.6468 69.3689 56.3237C70.1674 59.2412 68.3985 62.5931 65.5237 63.5317C64.9931 63.7045 64.7678 63.9386 64.7251 64.5063C64.5949 66.2326 62.9781 67.8144 61.2464 67.9807C60.7592 68.0274 60.5153 68.2976 60.5145 68.7913C60.5134 69.1556 60.5069 69.5199 60.4981 69.8841C60.4981 69.9159 60.4697 69.9465 60.4423 70.0045H58.4886C58.4787 69.7977 58.4612 69.5888 58.4612 69.3798C58.4576 68.4938 58.0054 68.0507 57.1047 68.0507C42.2283 68.0507 27.3518 68.0562 12.4753 68.0376C11.6002 68.0376 10.725 67.8461 9.7941 67.7367V69.9903H7.74734C7.7364 69.813 7.71562 69.638 7.71562 69.463C7.71343 67.7313 7.74953 65.9985 7.70577 64.2679C7.64451 61.812 9.31605 60.1164 11.3442 59.8768C11.4131 59.8691 11.4788 59.832 11.5411 59.8101C11.4525 59.0596 11.2994 58.3278 11.2917 57.5959C11.2622 54.8983 11.2797 52.1996 11.2797 49.5019C11.2797 49.3105 11.2797 49.119 11.2797 48.8707C10.8618 49.0774 10.5314 49.2601 10.1857 49.4089C7.08004 50.7391 3.54006 48.676 3.14952 45.3066C3.10139 44.892 3.07404 44.472 3.07294 44.0541C3.06747 40.2253 3.06966 36.3976 3.06966 32.5688C3.06966 32.3533 3.06966 32.1378 3.06966 31.9759L3.06747 31.9683ZM42.6866 34.7873C42.7162 34.8486 42.7468 34.9099 42.7763 34.9711C43.5049 34.714 44.2816 34.5456 44.9544 34.1846C47.2243 32.9659 48.2559 30.9815 48.2591 28.4458C48.2679 21.81 48.2843 15.1741 48.2373 8.5383C48.2307 7.59642 48.0644 6.57905 47.6772 5.73125C46.5548 3.27427 44.5299 2.08734 41.8344 2.08406C35.3441 2.07531 28.8549 2.08078 22.3645 2.08297C22.195 2.08297 22.0254 2.10266 21.8132 2.11688C21.8821 2.21862 21.904 2.26894 21.9401 2.30394C23.8468 4.12316 24.676 6.36573 24.6454 8.98134C24.6137 11.7151 24.6388 14.4499 24.6388 17.1848C24.6388 18.4067 24.6465 19.6275 24.629 20.8484C24.6268 21.0103 24.5021 21.3046 24.4179 21.31C23.8282 21.3505 23.2342 21.3319 22.6085 21.3319C22.6085 21.03 22.6085 20.8123 22.6085 20.5946C22.6085 16.6564 22.6304 12.7193 22.5997 8.78115C22.58 6.27384 21.5616 4.27959 19.3704 2.95155C18.5062 2.42756 17.5501 2.14751 16.978 2.28644C17.0425 2.36192 17.0972 2.43193 17.1574 2.49538C18.7524 4.17567 19.5247 6.16773 19.4995 8.48797C19.4755 10.6573 19.4962 12.8265 19.494 14.9958C19.4908 19.6811 19.5028 24.3665 19.4722 29.0507C19.4579 31.2134 18.5751 33.0327 17.0874 34.5762C17.0108 34.655 16.9605 34.76 16.8522 34.9186H17.595C23.8665 34.9186 30.137 34.9186 36.4085 34.9175C36.7542 34.9175 37.1032 34.923 37.4467 34.8869C39.7002 34.6528 41.4166 33.5807 42.5532 31.5996C43.1701 30.5232 43.3867 29.3505 43.39 28.1362C43.4042 24.2166 43.3955 20.297 43.3955 16.3775C43.3955 16.1641 43.3955 15.9519 43.3955 15.6697C43.9326 15.6697 44.403 15.6916 44.8701 15.6631C45.2858 15.638 45.4423 15.7616 45.4401 16.2101C45.4237 20.2752 45.4302 24.3402 45.4291 28.4064C45.4291 30.3875 44.8329 32.1695 43.6132 33.7328C43.3266 34.1003 42.9951 34.434 42.6833 34.783L42.6866 34.7873ZM12.2872 41.5971C13.4052 43.04 13.3636 44.5934 13.3483 46.1501C13.3286 48.2647 13.3439 50.3792 13.3439 52.4938V53.0988C13.496 53.0375 13.554 53.0288 13.5923 52.997C14.9848 51.8615 16.617 51.6012 18.3574 51.6023C31.1729 51.6165 43.9873 51.6066 56.8028 51.6209C57.3399 51.6209 57.5215 51.5093 57.5095 50.935C57.4701 49.0031 57.4964 47.0712 57.4942 45.1382C57.492 42.8157 56.2733 41.5971 53.9542 41.596C40.3182 41.596 26.6834 41.596 13.0475 41.596C12.8506 41.596 12.6537 41.596 12.2861 41.596L12.2872 41.5971ZM22.1031 61.8809H22.9432C36.1383 61.8809 49.3345 61.8809 62.5296 61.8787C63.0032 61.8787 63.4769 61.8601 63.9484 61.8251C66.2139 61.6588 68.031 59.0312 67.3954 56.8477C66.7883 54.7594 65.2819 53.6578 62.9978 53.6567C49.5653 53.6534 36.1328 53.6556 22.7004 53.6567C22.5297 53.6567 22.3591 53.6764 22.1151 53.6906C24.082 56.4287 24.093 59.1089 22.102 61.8809H22.1031ZM6.13925 31.8567C6.10862 31.9092 6.07799 31.9617 6.04736 32.0153C6.31538 32.35 6.56698 32.7012 6.85578 33.0184C8.95505 35.3201 12.7302 35.5465 15.1303 33.5556C16.7658 32.198 17.4528 30.4564 17.4484 28.367C17.4353 21.7881 17.4484 15.2091 17.4363 8.62909C17.4353 8.0132 17.4068 7.37872 17.258 6.78471C16.0974 2.14751 10.4647 0.533951 6.99581 3.83764C6.63262 4.18333 6.35695 4.61981 6.0397 5.01472C6.07799 5.05957 6.11737 5.10442 6.15566 5.14928C6.35257 5.14928 6.54948 5.14928 6.74639 5.14928C8.14991 5.14928 9.55343 5.14052 10.9559 5.15475C11.3355 5.15803 11.7293 5.17772 12.0903 5.27945C13.5693 5.69843 14.3865 6.85691 14.3908 8.53501C14.3996 12.2533 14.3941 15.9705 14.3941 19.6888C14.3941 22.6052 14.4007 25.5206 14.3919 28.437C14.3854 30.5658 13.1033 31.8446 10.9887 31.8545C10.096 31.8589 9.20228 31.8545 8.30962 31.8545C7.58653 31.8545 6.86344 31.8545 6.14035 31.8545L6.13925 31.8567ZM6.11847 29.7651C6.23989 29.7749 6.3646 29.7924 6.48822 29.7924C8.00004 29.7946 9.51186 29.8001 11.0237 29.7924C11.9579 29.7869 12.3353 29.4008 12.3353 28.4447C12.3386 21.8143 12.3386 15.184 12.3353 8.55361C12.3353 7.60079 11.9623 7.22448 11.0171 7.21901C9.5053 7.21025 7.99348 7.21572 6.48165 7.21901C6.34601 7.21901 6.20926 7.25292 6.11847 7.26495V29.7662V29.7651ZM5.16237 40.5765C6.77921 39.3633 8.57108 39.5383 10.3312 39.5383C20.3222 39.5383 30.3142 39.5383 40.3051 39.5383H41.0698C41.0698 38.8994 41.0698 38.3218 41.0698 37.7443C41.0698 37.2396 40.8098 36.9872 40.2898 36.9872C30.7539 36.9872 21.2192 36.9829 11.6833 36.9905C9.82801 36.9916 8.10615 36.577 6.58448 35.4875C6.10534 35.144 5.66776 34.7414 5.16237 34.3257V40.5775V40.5765ZM15.4946 65.9919H16.0744C30.8021 65.9919 45.5298 65.9919 60.2575 65.9897C60.5473 65.9897 60.8449 65.9843 61.1271 65.9252C62.1051 65.7206 62.7855 64.8192 62.5974 63.8894H15.988C15.8348 64.5424 15.674 65.2262 15.4946 65.9919ZM50.3125 18.5052C50.3125 21.7498 50.3114 24.9944 50.3136 28.239C50.3136 28.7401 50.1385 29.4894 50.3869 29.6808C50.7249 29.9412 51.3911 29.7891 51.9162 29.7913C53.0779 29.7957 53.3831 29.4905 53.3831 28.3451C53.3831 21.7826 53.3831 15.2201 53.3831 8.65863C53.3831 8.49454 53.3897 8.32935 53.3733 8.16636C53.3208 7.65111 52.9795 7.29011 52.4621 7.24198C52.0825 7.20697 51.6974 7.21682 51.3156 7.21572C50.6206 7.21354 50.2851 7.54974 50.3092 8.22433C50.3147 8.38843 50.3136 8.55252 50.3136 8.71661C50.3136 11.9798 50.3136 15.2419 50.3136 18.5052H50.3125ZM17.4714 61.8645C19.7489 61.8503 21.5572 60.0234 21.5441 57.7502C21.5321 55.5218 19.6986 53.6895 17.467 53.6731C15.2485 53.6567 13.3494 55.5514 13.3516 57.7819C13.3527 60.031 15.2178 61.8798 17.4714 61.8656V61.8645ZM2.06215 18.4723C2.06215 21.7356 2.06215 24.9977 2.06215 28.2609C2.06215 28.4797 2.05777 28.7007 2.08731 28.9162C2.15185 29.3898 2.5391 29.7399 3.01168 29.776C3.47114 29.8121 3.91856 29.5102 4.03452 29.0474C4.09578 28.8035 4.11656 28.5442 4.11656 28.2915C4.12094 21.7662 4.12094 15.2409 4.11656 8.71442C4.11656 8.46172 4.09687 8.20136 4.03342 7.9596C3.90652 7.47827 3.56631 7.23651 3.06966 7.23541C2.43846 7.23541 2.06543 7.68065 2.06433 8.465C2.05886 11.8004 2.06215 15.1358 2.06215 18.4723ZM11.272 44.6776C11.2687 42.9908 9.89802 41.6091 8.21992 41.6048C6.55823 41.5993 5.15361 42.9963 5.1383 44.6678C5.12298 46.3678 6.52213 47.756 8.23742 47.7439C9.94178 47.7319 11.2742 46.3853 11.2709 44.6776H11.272ZM11.8124 61.8995C10.6878 61.8984 9.74268 62.8381 9.75034 63.9495C9.7569 65.0457 10.6736 65.9624 11.7796 65.9788C12.9031 65.9952 13.857 65.0708 13.8668 63.955C13.8767 62.8425 12.9348 61.9006 11.8124 61.8984V61.8995Z" fill="#EB4438"/>
<path d="M43.4294 13.566V11.5739C44.0158 11.5739 44.5737 11.5586 45.1294 11.5871C45.2333 11.5925 45.3318 11.7719 45.4259 11.877C45.4445 11.8977 45.4292 11.947 45.4324 11.9842C45.5418 13.6743 45.3187 13.857 43.4294 13.5671V13.566Z"/>
<path d="M22.6392 25.4286V23.4409H24.6356C24.6356 24.0174 24.6542 24.5742 24.6203 25.1289C24.6137 25.235 24.407 25.4078 24.2855 25.4155C23.7626 25.4472 23.2354 25.4286 22.6392 25.4286Z" fill="#EB4438"/>
<path d="M24.6158 45.4421C22.4115 45.4421 20.2072 45.4334 18.0029 45.4498C17.5883 45.453 17.4319 45.3557 17.4319 44.9072C17.433 43.3866 17.4155 43.3866 18.9481 43.3866C23.011 43.3866 27.0728 43.3975 31.1356 43.3746C31.6881 43.3713 31.8566 43.5157 31.8412 44.0747C31.8051 45.4421 31.8325 45.4421 30.464 45.4421C28.5146 45.4421 26.5652 45.4421 24.6158 45.4421Z" fill="#EB4438"/>
<path d="M36.9674 43.3866C37.8426 43.3866 38.7177 43.3953 39.5918 43.3822C39.9156 43.3778 40.0326 43.4938 40.049 43.8252C40.1245 45.4421 40.1333 45.4421 38.5416 45.4421C37.1742 45.4421 35.8068 45.429 34.4404 45.4497C34.0269 45.4563 33.8683 45.3568 33.8694 44.9071C33.8738 43.3855 33.8552 43.3855 35.3812 43.3855C35.9096 43.3855 36.438 43.3855 36.9674 43.3855V43.3866Z" fill="#EB4438"/>
<path d="M43.9031 44.4675C43.89 45.5778 44.0234 45.44 43.0192 45.4389C41.9504 45.4367 42.097 45.5909 42.0981 44.4598C42.0981 43.2269 41.9318 43.4009 43.1614 43.3888C43.9009 43.3812 43.9009 43.3888 43.9031 44.1404C43.9031 44.2498 43.9031 44.3581 43.9031 44.4675Z" fill="#EB4438"/>
<path d="M35.436 57.7742C32.722 57.7742 30.0068 57.7622 27.2927 57.7852C26.8059 57.7895 26.6758 57.6462 26.6834 57.1671C26.7075 55.7165 26.6867 55.7154 28.1405 55.7154C33.2602 55.7154 38.3787 55.7231 43.4983 55.7034C44.0256 55.7012 44.1821 55.8467 44.1711 56.3751C44.1416 57.7731 44.1656 57.7731 42.7599 57.7731C40.3183 57.7731 37.8777 57.7731 35.436 57.7731V57.7742Z" fill="#EB4438"/>
<path d="M51.3221 55.8117C51.3221 56.3521 51.3363 56.9286 51.3078 57.503C51.3035 57.5981 51.1087 57.7589 51.0004 57.7611C49.5094 57.7775 48.0184 57.7786 46.5273 57.7567C46.4212 57.7557 46.3107 57.5489 46.2167 57.4275C46.1904 57.3936 46.2123 57.3214 46.2101 57.2667C46.1846 56.2325 46.6878 55.7158 47.7197 55.7166C48.8651 55.7187 50.0104 55.7264 51.1558 55.733C51.1875 55.733 51.2192 55.7614 51.3221 55.8117Z" fill="#EB4438"/>
<path d="M53.3842 55.7461H55.4451C55.4451 56.3489 55.4604 56.9254 55.4309 57.4986C55.4265 57.5948 55.2351 57.7524 55.1224 57.76C54.6509 57.7896 54.174 57.7928 53.7025 57.7567C53.5887 57.748 53.4049 57.5544 53.3984 57.4373C53.3656 56.8958 53.3842 56.351 53.3842 55.7461Z" fill="#EB4438"/>
<path d="M10.2743 26.9809C10.2743 28.0092 10.2743 28.0169 9.23067 28.0081C8.0886 27.9972 8.22534 28.1832 8.21769 27.0028C8.21112 25.945 8.21659 25.9384 9.29193 25.9461C10.446 25.9548 10.2535 25.8027 10.2743 26.982V26.9809Z" fill="#EB4438"/>
<path d="M10.2733 11.5639C9.65192 11.5639 9.07432 11.5814 8.49891 11.5475C8.39827 11.5409 8.24074 11.3211 8.22871 11.1876C8.07665 9.54342 8.24621 9.37167 9.88821 9.53029C10.025 9.54342 10.2459 9.73048 10.2547 9.84972C10.2941 10.3912 10.2722 10.9371 10.2722 11.5639H10.2733Z" fill="#EB4438"/>
<path d="M10.271 13.6765C10.271 14.2651 10.2896 14.8251 10.2546 15.382C10.248 15.487 10.0336 15.6522 9.90561 15.6631C9.47241 15.6992 9.03046 15.7091 8.59945 15.6587C8.46052 15.6423 8.34456 15.4126 8.22094 15.278C8.21219 15.2682 8.21766 15.243 8.21876 15.2244C8.25486 14.7081 8.29205 14.1918 8.32815 13.6765H10.271Z" fill="#EB4438"/>
<path d="M10.2743 18.7599C10.2743 19.7893 10.2743 19.7959 9.22193 19.7871C8.07439 19.7784 8.22098 19.9447 8.21989 18.761C8.21989 17.573 8.08533 17.7327 9.21975 17.7338C10.4504 17.7349 10.2535 17.5774 10.2743 18.7599Z" fill="#EB4438"/>
<path d="M8.21655 22.8437C8.23077 21.7038 8.08528 21.858 9.19344 21.8504C10.2743 21.8427 10.2808 21.8482 10.2732 22.9509C10.2666 24.0021 10.4197 23.8916 9.30393 23.9015C9.28533 23.9015 9.26783 23.9015 9.24923 23.9015C8.08419 23.8873 8.22968 24.0503 8.21655 22.8437Z" fill="#EB4438"/>
<path d="M16.431 56.7952H18.481C18.481 57.3936 18.493 57.9668 18.469 58.5389C18.4657 58.6286 18.3027 58.7818 18.2075 58.7872C17.7196 58.8135 17.2285 58.8179 16.7416 58.7883C16.6333 58.7818 16.4507 58.6155 16.4452 58.5159C16.4157 57.9602 16.431 57.4023 16.431 56.7963V56.7952Z" fill="#EB4438"/>
<path d="M7.23413 43.6809H9.18244V45.673H7.23413V43.6809Z" fill="#EB4438"/>
</g>
<defs>
<clipPath id="clip0_201_38">
<rect width="69.5602" height="70" fill="white"/>
</clipPath>
</defs>
</svg>
