<svg width="70" height="70" viewBox="0 0 70 70" fill="none" xmlns="http://www.w3.org/2000/svg">
<g clip-path="url(#clip0_201_154)">
<path d="M16.6422 62.8236C17.2312 64.0985 17.4936 65.2819 17.1629 66.5267C16.66 68.4275 15.0325 69.8035 13.1154 69.9702C11.1777 70.1383 9.31798 69.0205 8.5022 67.2113C7.89549 65.8667 7.28878 64.5235 6.64927 63.1953C6.56592 63.0231 6.30082 62.8551 6.10542 62.8373C5.47274 62.7772 4.8305 62.8223 4.19646 62.7662C1.76689 62.5503 -0.00952068 60.558 0.0273739 58.1202C0.0615356 55.7918 1.9213 53.7189 4.28392 53.7393C5.73101 53.7516 6.39648 53.3253 6.75722 51.9383C7.02095 50.9244 7.66729 50.0157 8.10046 49.0401C8.33549 48.5126 8.48034 47.9442 8.69624 47.3047C7.22729 47.3047 5.88542 47.332 4.54491 47.2978C2.61 47.2486 1.1998 46.3208 0.422283 44.5581C-0.347038 42.8144 -0.0477818 41.1706 1.17794 39.7249C2.04838 38.6986 3.20714 38.219 4.54081 38.1589C4.96988 38.1398 5.40032 38.1562 5.79796 38.1562V31.9018C5.18032 31.8513 4.45609 31.8472 3.75236 31.7269C1.46353 31.3348 -0.128403 29.2441 0.0328398 26.8992C0.189983 24.6049 2.13583 22.7451 4.45746 22.7014C5.82119 22.6755 7.18493 22.6973 8.72494 22.6973C8.42021 21.887 8.17562 21.1723 7.88319 20.4768C7.56344 19.7184 7.66456 19.1841 8.24121 18.8931C8.84382 18.5884 9.35488 18.8384 9.74022 19.6159C11.1176 22.3994 11.1695 25.213 9.6432 27.9131C7.93102 30.9412 7.44456 34.1237 7.93375 37.518C8.00071 37.9854 8.13462 38.1794 8.64705 38.1685C10.1912 38.1343 11.738 38.1562 13.2261 38.1562C13.0812 37.063 12.8694 36.019 12.8216 34.9668C12.7505 33.4104 13.2083 31.9497 13.9694 30.6037C15.4152 28.0498 15.9576 25.3223 15.7595 22.4035C15.6174 20.306 14.8918 18.4216 13.8724 16.6288C13.7699 16.4485 13.3832 16.3528 13.1263 16.3501C10.3483 16.3309 7.57027 16.3542 4.79224 16.3323C2.30391 16.3118 0.564395 14.8798 0.0929643 12.5185C-0.392131 10.0848 1.49496 7.5186 3.96553 7.25351C4.19237 7.22891 4.4315 7.15102 4.6433 7.19748C6.12182 7.52134 6.85151 6.80667 7.29151 5.47437C7.58804 4.5766 8.09773 3.75125 8.47624 2.87672C9.31252 0.944531 11.3363 -0.25386 13.2999 0.0453958C15.5245 0.38428 17.223 2.10739 17.2968 4.30877C17.3282 5.2325 17.003 6.16853 16.8254 7.17972C17.8967 7.17972 19.0595 7.07314 20.1951 7.20705C21.5205 7.36419 22.2803 6.94879 22.6957 5.65611C22.9977 4.71325 23.5484 3.85237 23.9337 2.93274C24.9121 0.596082 27.4155 -0.546284 29.7781 0.296826C32.1065 1.12764 33.3323 3.64877 32.5725 6.05375C32.4646 6.39673 32.3402 6.73425 32.1858 7.18109C33.4266 7.18109 34.6099 7.08817 35.7728 7.20705C36.9999 7.3314 37.7405 7.00481 38.134 5.75996C38.4456 4.77337 39.0209 3.8715 39.4294 2.91224C40.4283 0.564653 43.0082 -0.573614 45.3545 0.325522C47.6665 1.21099 48.8389 3.75945 48.0355 6.15214C47.9357 6.45003 47.8209 6.74382 47.6911 7.09773C47.8742 7.13053 48.0163 7.17835 48.1598 7.17835C49.5946 7.18382 51.0294 7.17152 52.4628 7.18929C52.8359 7.19475 53.0162 7.06904 53.1706 6.72195C53.7855 5.33226 54.421 3.95076 55.0851 2.58429C55.9733 0.755959 58.0558 -0.294854 59.951 0.0918557C62.1456 0.540057 63.7471 2.24404 63.7744 4.36207C63.7854 5.26803 63.4697 6.1781 63.2839 7.18382C63.8537 7.18382 64.4986 7.17425 65.1436 7.18519C67.6935 7.23028 69.4384 8.63227 69.9167 11.0072C70.4127 13.4709 68.4942 16.085 65.9895 16.2763C64.8881 16.361 63.7744 16.29 62.5091 16.29C63.5777 18.3711 64.2144 20.4071 64.28 22.6946C64.6954 22.6946 65.0726 22.6878 65.4497 22.6946C67.9831 22.7451 69.9686 24.7197 69.985 27.2026C70.0028 29.7169 68.0282 31.7611 65.4866 31.8376C64.5082 31.8663 63.5271 31.8185 62.5501 31.8636C62.3273 31.8745 62.0089 32.0808 61.916 32.2804C61.0797 34.0991 61.1166 35.9384 61.9393 37.7503C62.0267 37.9444 62.3642 38.122 62.5965 38.1357C63.8209 38.2081 65.0644 38.1124 66.271 38.2873C68.5612 38.6221 70.1558 40.7825 69.9782 43.111C69.8046 45.3875 67.882 47.2322 65.6082 47.2978C65.201 47.3088 64.7924 47.2992 64.306 47.2992C64.1775 49.5279 63.6596 51.6172 62.4845 53.6833C63.6665 53.6833 64.6845 53.6341 65.6957 53.6929C68.1867 53.8364 70.0315 55.8697 69.9836 58.3607C69.9413 60.6058 68.1512 62.5667 65.9116 62.7471C65.0152 62.8195 64.1078 62.7594 63.3221 62.7594C63.4752 63.9086 63.7867 64.943 63.7088 65.9474C63.5476 68.0531 61.9051 69.6122 59.7638 69.9497C57.9136 70.2422 55.9159 69.164 55.0536 67.3699C54.4046 66.0212 53.8047 64.6479 53.1597 63.2964C53.0682 63.1051 52.8495 62.8441 52.6842 62.84C51.0485 62.8059 49.4129 62.8195 47.661 62.8195C47.7608 63.1051 47.825 63.3074 47.9002 63.5055C48.8758 66.084 47.7881 68.724 45.3613 69.6642C42.918 70.6111 40.3737 69.3977 39.3283 66.8465C38.8118 65.588 38.1969 64.3677 37.6025 63.142C37.5328 62.9972 37.3142 62.8332 37.1638 62.8318C35.5296 62.81 33.8939 62.8182 32.2008 62.8182C32.3798 63.4057 32.5752 63.91 32.6846 64.4333C33.1738 66.7823 31.8702 69.0124 29.6032 69.7434C27.3581 70.4676 24.9709 69.3895 23.9897 67.2168C23.383 65.8722 22.7708 64.5303 22.1423 63.1967C22.0685 63.0409 21.8731 62.84 21.731 62.8373C20.0734 62.8127 18.4146 62.8209 16.6395 62.8209L16.6422 62.8236ZM55.1834 47.3593H48.8061C48.6941 49.5757 48.1338 51.6323 47.1076 53.5166C47.2115 53.6027 47.2292 53.6287 47.2456 53.6287C51.4557 53.641 55.6658 53.6546 59.8773 53.6464C60.0494 53.6464 60.2845 53.4647 60.3842 53.3021C62.1388 50.4393 62.5255 47.3211 62.1101 44.0443C61.8873 42.2925 61.1125 40.7579 60.3542 39.207C59.5192 37.5003 59.0587 35.7129 59.3389 33.7999C59.4318 33.159 59.6135 32.5318 59.7652 31.8458C58.1145 31.8458 56.5007 31.8335 54.8883 31.8649C54.7298 31.8677 54.4469 32.1369 54.4415 32.2913C54.3813 33.8313 54.287 35.3781 54.3595 36.914C54.4483 38.7902 55.2764 40.4505 56.1277 42.093C57.5515 44.8382 57.6007 47.6176 56.2042 50.3983C55.8598 51.0829 55.3488 51.3057 54.7749 51.0378C54.2201 50.7796 54.078 50.218 54.3581 49.5293C54.6369 48.8419 54.8869 48.1423 55.1834 47.3607V47.3593ZM36.814 38.1521C36.814 36.2171 36.7184 34.3765 36.84 32.5495C36.9725 30.5709 37.8525 28.8041 38.764 27.0659C39.1316 26.3636 39.3652 25.5915 39.6795 24.7976H17.9773C17.5878 26.5111 17.2175 28.1372 16.8404 29.7947C17.0331 29.7947 17.3009 29.7947 17.5673 29.7947C22.7777 29.7947 27.9894 29.7934 33.1997 29.7975C33.9526 29.7975 34.4145 30.1746 34.4391 30.7718C34.4651 31.3908 33.9704 31.8281 33.2052 31.8431C32.6586 31.854 32.1079 31.8048 31.5695 31.8649C31.3386 31.8909 31.0216 32.0781 30.9314 32.2776C30.1074 34.0964 30.1443 35.9329 30.9423 37.7517C31.0161 37.9198 31.2416 38.1329 31.4001 38.1357C33.2161 38.163 35.0335 38.1534 36.8113 38.1534L36.814 38.1521ZM44.2244 38.1179C44.0631 37.1586 43.824 36.2513 43.7762 35.3344C43.6764 33.4405 44.3556 31.7324 45.2041 30.0762C47.5094 25.5792 47.3167 21.1231 44.9076 16.7327C44.7997 16.5359 44.4621 16.3583 44.2271 16.3528C42.7267 16.3187 41.225 16.3337 39.7232 16.3391C39.5962 16.3391 39.4704 16.3774 39.286 16.4061C39.4049 16.7327 39.4868 17.0128 39.6057 17.2752C40.0922 18.3492 40.6196 19.4069 41.0774 20.4918C41.8577 22.3393 41.9711 24.2428 41.3097 26.1436C40.9763 27.1028 40.5622 28.0443 40.0963 28.9475C38.5877 31.869 38.4606 34.9299 39.0154 38.1179H44.223H44.2244ZM23.6591 53.6587C25.5612 53.6587 27.2611 53.6669 28.9609 53.6437C29.1113 53.641 29.3108 53.4579 29.4023 53.3062C31.1828 50.3532 31.6146 47.1653 31.0926 43.7928C30.8344 42.1189 30.0773 40.6527 29.3559 39.1646C28.4403 37.2762 28.0194 35.3098 28.4554 33.2191C28.5496 32.7709 28.6876 32.3323 28.8106 31.8759H23.4978C23.4158 32.5933 23.3092 33.2874 23.26 33.9843C23.0592 36.8498 23.7137 39.5021 25.1048 42.0274C26.6776 44.8819 26.627 47.7952 25.0925 50.6867C24.606 51.6036 24.1879 52.5574 23.6591 53.6587ZM52.2715 9.28271C52.2387 9.27451 52.1731 9.24172 52.1075 9.24172C45.2383 9.23762 38.3691 9.23079 31.4998 9.24992C31.3017 9.24992 31.0147 9.47538 30.9205 9.66942C30.3206 10.8924 30.2564 12.1892 30.4299 13.5256C30.5064 14.1186 30.7387 14.3017 31.3454 14.3004C38.0561 14.2785 44.7655 14.2867 51.4762 14.2853C51.7154 14.2853 51.9531 14.2621 52.2729 14.2457V9.28271H52.2715ZM36.7812 55.8055C36.6186 55.759 36.5544 55.7235 36.4902 55.7235C29.5062 55.718 22.5235 55.7125 15.5395 55.733C15.3619 55.733 15.0722 55.9899 15.0271 56.173C14.7005 57.5135 14.8727 58.824 15.3277 60.118C15.5067 60.6277 15.78 60.7835 16.3239 60.7821C22.943 60.7603 29.5636 60.7685 36.1827 60.7685C36.4068 60.7685 36.6323 60.7685 36.7799 60.7685V55.8055H36.7812ZM56.0826 55.7125C52.9643 55.7125 49.8447 55.718 46.7264 55.7057C46.3178 55.7043 46.0377 55.7535 45.9502 56.2304C45.707 57.5614 45.8149 58.8445 46.2987 60.1153C46.4927 60.6263 46.7564 60.7835 47.2989 60.7808C53.172 60.7603 59.0464 60.7685 64.9195 60.7657C65.1914 60.7657 65.4661 60.7507 65.7353 60.7152C66.7875 60.5758 67.4762 59.9786 67.8069 58.9866C68.143 57.9754 67.8547 57.1077 67.1127 56.3766C66.5538 55.8259 65.8501 55.7084 65.0985 55.7098C62.0937 55.7166 59.0888 55.7125 56.0839 55.7125H56.0826ZM46.7482 47.3115C45.1139 47.3115 43.548 47.3047 41.982 47.3252C41.8618 47.3265 41.6541 47.5137 41.639 47.634C41.4231 49.3011 40.4816 50.6716 39.838 52.1665C38.2898 55.7645 38.283 59.4006 39.8039 63.0163C40.2603 64.1026 40.815 65.1466 41.2906 66.2261C41.9069 67.6281 43.2979 68.2786 44.6343 67.7525C45.9844 67.2209 46.5966 65.7424 46.0008 64.3008C45.5512 63.2117 45.0005 62.1636 44.5277 61.0827C43.8705 59.5755 43.4674 57.9863 43.9142 56.3725C44.3105 54.9418 44.8694 53.5439 45.4925 52.1939C46.1976 50.6648 46.6553 49.1016 46.7496 47.3101L46.7482 47.3115ZM32.3224 40.2045C32.7105 41.9112 33.0849 43.5564 33.4648 45.2263H55.1534C54.8733 44.4829 54.6478 43.7969 54.3581 43.1397C54.011 42.3512 53.5587 41.6051 53.2499 40.803C53.0572 40.3042 52.7962 40.1922 52.2988 40.1936C46.0391 40.21 39.7779 40.2045 33.5181 40.2045H32.3224ZM31.2156 22.6864C31.2156 22.5046 31.2197 22.3953 31.2156 22.2874C31.1377 20.3306 30.4395 18.5624 29.5144 16.8789C27.8227 13.803 27.947 10.7612 29.5677 7.70854C29.9503 6.98841 30.337 6.25872 30.6021 5.49213C31.0885 4.09014 30.4012 2.68541 29.0839 2.21808C27.7503 1.74391 26.4111 2.39162 25.8181 3.77722C25.5243 4.46455 25.2278 5.15462 24.8793 5.81599C22.6041 10.1436 22.6752 14.4575 24.8178 18.8193C25.3712 19.9466 25.6924 21.1887 26.1406 22.3694C26.1897 22.5005 26.3688 22.6714 26.489 22.6727C28.0522 22.6932 29.6155 22.6864 31.2156 22.6864ZM62.2112 22.6522C62.188 22.2778 62.1825 21.943 62.1429 21.611C61.9406 19.9152 61.3038 18.3643 60.4922 16.8844C58.8223 13.8371 58.9112 10.8132 60.5181 7.77687C60.9103 7.03624 61.2915 6.27922 61.5717 5.49213C62.0568 4.12703 61.4063 2.73734 60.1287 2.23858C58.8182 1.72752 57.4244 2.35609 56.8191 3.70889C56.4215 4.59846 56.0033 5.4812 55.5756 6.35711C53.7978 9.99601 53.7446 13.7142 55.1711 17.4501C55.8366 19.1937 56.9913 20.7433 57.1607 22.6509H62.2098L62.2112 22.6522ZM10.6913 47.3429C10.5382 48.9376 9.78668 50.2644 9.12394 51.635C7.26555 55.4816 7.24369 59.376 8.94494 63.2828C9.36991 64.2598 9.86457 65.2067 10.2868 66.1851C10.9072 67.6213 12.3215 68.2909 13.6702 67.7497C15.0161 67.2113 15.6174 65.7274 15.0189 64.2885C14.6363 63.3688 14.1812 62.4765 13.7371 61.5842C12.7888 59.678 12.5046 57.6584 13.0498 55.6237C13.386 54.3693 14.0391 53.1955 14.5912 52.0039C15.273 50.5309 15.724 49.0141 15.7363 47.3429H10.6899H10.6913ZM24.1196 45.2604C24.013 44.8655 23.9679 44.5458 23.8422 44.2629C23.327 43.1014 22.7599 41.9631 22.2707 40.7907C22.0835 40.3425 21.8608 40.1895 21.3757 40.1936C18.0292 40.2154 14.6827 40.2059 11.3363 40.2059C9.10481 40.2059 6.87474 40.1922 4.6433 40.2127C3.60478 40.2223 2.80813 40.7033 2.33944 41.6448C1.87894 42.5671 1.99509 43.4622 2.6018 44.2752C3.14565 45.0035 3.90541 45.2686 4.80728 45.2673C11.0452 45.2563 17.2817 45.2618 23.5197 45.2618H24.1182L24.1196 45.2604ZM47.8223 29.7961H48.4932C51.3136 29.7961 54.134 29.7961 56.953 29.7961C59.7283 29.7961 62.5022 29.8002 65.2775 29.7934C66.3447 29.7906 67.1701 29.3356 67.6607 28.3764C68.128 27.4622 68.0241 26.5658 67.4229 25.7459C66.8859 25.0135 66.1329 24.7334 65.2297 24.7347C59.9538 24.7457 54.6765 24.7388 49.4006 24.7416C49.2065 24.7416 49.0138 24.7675 48.9619 24.7716C48.5697 26.5002 48.2008 28.1249 47.8223 29.7947V29.7961ZM21.2937 9.26358C21.1489 9.25402 20.9712 9.23215 20.7936 9.23215C15.5135 9.23079 10.2321 9.23079 4.95212 9.23215C4.72529 9.23215 4.49709 9.25128 4.27162 9.27998C3.24677 9.41389 2.56217 9.99464 2.22192 10.9484C1.86664 11.9446 2.12353 12.826 2.85323 13.5762C3.44081 14.1788 4.1869 14.2894 4.98492 14.2894C10.1515 14.2826 15.3181 14.2867 20.4861 14.284C20.7266 14.284 20.9657 14.2608 21.2951 14.2444V9.26222L21.2937 9.26358ZM52.2688 31.8458C50.5101 31.8458 48.7365 31.8322 46.9628 31.8663C46.7687 31.8704 46.49 32.1109 46.4025 32.3077C45.5977 34.1087 45.6168 35.9261 46.4353 37.7148C46.5269 37.9157 46.8507 38.1275 47.0735 38.1343C48.3251 38.1739 49.5782 38.1534 50.8299 38.1534C51.3409 38.1534 51.852 38.1534 52.2688 38.1534V31.8444V31.8458ZM21.3087 31.8486C19.5364 31.8486 17.7013 31.839 15.8647 31.8677C15.7158 31.8704 15.5149 32.1136 15.4357 32.2899C14.7333 33.845 14.6554 35.4383 15.1883 37.0616C15.4279 37.7904 15.9221 38.1548 16.6709 38.1548C17.1027 38.1548 17.5345 38.1548 17.9664 38.1548C19.1169 38.1548 20.2675 38.1548 21.3087 38.1548V31.8486ZM31.5176 16.3419C32.6695 18.3957 33.1943 20.4659 33.3213 22.6563H39.6454C39.4308 22.0155 39.2764 21.4306 39.0441 20.8772C38.4483 19.4602 37.8225 18.0541 37.1925 16.6521C37.1338 16.5209 36.952 16.3569 36.8263 16.3555C35.1073 16.3364 33.3869 16.3419 31.519 16.3419H31.5176ZM24.1619 22.6536C23.9747 22.0756 23.8449 21.5522 23.6386 21.0603C23.0168 19.579 22.3759 18.1074 21.7105 16.6452C21.6421 16.4949 21.3743 16.3596 21.1926 16.3514C20.4205 16.3187 19.6471 16.3378 18.8737 16.3378C17.9759 16.3378 17.0768 16.3378 16.0451 16.3378C17.1601 18.397 17.7149 20.4741 17.8379 22.655H24.1619V22.6536ZM39.6508 47.347H33.3172C33.2079 49.5429 32.6654 51.6241 31.5367 53.6587C33.3801 53.6587 35.0991 53.6656 36.8168 53.6451C36.9438 53.6437 37.127 53.4811 37.1871 53.3499C37.8211 51.9493 38.4497 50.5446 39.0482 49.1289C39.2819 48.5768 39.4363 47.992 39.6522 47.347H39.6508ZM24.2152 47.3498H17.8092C17.76 49.5771 17.1287 51.6295 16.067 53.6615C17.9144 53.6615 19.6143 53.6697 21.3142 53.6464C21.4536 53.6451 21.6503 53.4483 21.72 53.2966C22.2707 52.0818 22.8064 50.8602 23.3243 49.6317C23.629 48.9116 23.8941 48.1765 24.2152 47.3498ZM55.1766 22.6536C54.8883 21.8843 54.6505 21.1819 54.3649 20.5C53.8306 19.2279 53.2813 17.9598 52.6978 16.7081C52.6145 16.5305 52.3084 16.361 52.1007 16.3542C51.0103 16.3187 49.9184 16.3378 48.8266 16.3378C48.2705 16.3378 47.713 16.3378 47.0147 16.3378C48.1448 18.3943 48.6791 20.4618 48.8157 22.6536H55.1752H55.1766ZM63.8045 14.2867C63.8045 14.2867 63.8045 14.2758 63.8045 14.2703C64.3948 14.2703 64.9878 14.3031 65.5754 14.2635C66.9105 14.1747 67.9121 13.1198 67.9367 11.8189C67.9613 10.5139 67.0129 9.39203 65.6779 9.28681C64.5943 9.20072 63.4984 9.23079 62.4093 9.24992C62.2426 9.25265 62.0062 9.43986 61.9256 9.60247C61.2588 10.9594 61.1781 12.3914 61.5061 13.8453C61.5457 14.023 61.8395 14.2471 62.0335 14.2662C62.6184 14.3222 63.2128 14.2867 63.8045 14.2867ZM8.78779 24.7539C7.1248 24.7539 5.68728 24.6705 4.26889 24.7948C3.70454 24.8454 3.06776 25.2526 2.66465 25.6844C1.96092 26.4373 1.86664 27.3966 2.33534 28.3477C3.08006 29.8576 4.46566 29.7756 5.85809 29.8207C6.82828 29.8521 6.70393 29.061 7.01685 28.595C7.15487 28.3887 7.25872 28.1577 7.36257 27.9309C7.8176 26.9265 8.2658 25.9194 8.78779 24.7539ZM24.2425 62.8223C24.8943 64.2174 25.4341 65.5156 26.0996 66.7454C26.597 67.6664 27.5043 68.0367 28.5332 67.9069C29.5636 67.7771 30.2741 67.1649 30.6253 66.181C31.0585 64.9649 30.3862 63.981 29.8997 62.9671C29.8587 62.8824 29.6674 62.8305 29.5458 62.8291C27.8213 62.8209 26.0968 62.8236 24.2425 62.8236V62.8223ZM8.75363 7.18109C10.1761 7.18109 11.492 7.18109 12.8066 7.18109C14.5201 7.18109 14.7497 7.00071 15.1733 5.31996C15.1897 5.25437 15.1938 5.18468 15.2061 5.11909C15.4493 3.8961 14.8153 2.70454 13.6784 2.24951C12.5456 1.79584 11.1723 2.19212 10.5929 3.27299C9.93153 4.50418 9.3945 5.80095 8.75227 7.18109H8.75363ZM39.7232 7.18109H43.742C44.9554 7.18109 45.7471 6.59305 46.1169 5.41698C46.5118 4.16256 45.9639 2.87672 44.7983 2.32193C43.6587 1.77944 42.2526 2.09646 41.6226 3.2074C40.923 4.44132 40.3887 5.76816 39.7219 7.18109H39.7232ZM55.2231 62.8209C55.853 64.1819 56.3914 65.45 57.02 66.6716C57.501 67.6049 58.6392 68.0886 59.6163 67.9014C60.6848 67.6964 61.502 66.8889 61.6865 65.8217C61.8709 64.7626 61.3544 63.8867 60.8966 63.004C60.8433 62.9015 60.6329 62.8291 60.4949 62.8291C58.7732 62.8168 57.05 62.8209 55.2217 62.8209H55.2231ZM64.4481 45.2563C64.7309 45.2563 65.0917 45.2645 65.4538 45.255C66.7602 45.2208 67.8014 44.267 67.9312 42.9935C68.0569 41.7582 67.2562 40.5502 66.0059 40.3261C65.0944 40.1621 64.1447 40.2141 63.2989 40.1744C63.6897 41.8989 64.0559 43.5209 64.4495 45.2563H64.4481ZM5.79796 55.8136C4.19373 55.5144 3.08826 55.8929 2.46242 56.9014C1.909 57.795 1.94453 58.8827 2.55534 59.7163C3.23311 60.6414 4.51485 61.009 5.79796 60.6837V55.8136Z" fill="#EB4438"/>
</g>
<defs>
<clipPath id="clip0_201_154">
<rect width="69.9945" height="70" fill="white"/>
</clipPath>
</defs>
</svg>
