<svg width="73" height="70" viewBox="0 0 73 70" fill="none" xmlns="http://www.w3.org/2000/svg">
<g clip-path="url(#clip0_201_6)">
<path d="M67.7418 33.7694C68.2996 33.7694 68.7682 33.7976 69.2334 33.7649C70.8965 33.6474 72.2526 32.2044 72.2605 30.5401C72.2707 28.2819 72.265 26.0237 72.2627 23.7655C72.2605 21.8573 70.8525 20.4188 68.9364 20.3522C68.5265 20.3375 68.0173 20.4482 67.7373 20.2461C67.4889 20.0677 67.5024 19.5325 67.3895 19.1588C66.4038 15.8877 63.4851 13.6826 59.9826 13.5663C59.5885 13.5528 59.1934 13.564 58.6988 13.564C58.6988 13.3179 58.6988 13.1022 58.6988 12.8866C58.6988 10.1959 58.6988 7.50527 58.6988 4.81348C58.6988 3.13676 57.8079 2.25719 56.1177 2.25606C55.876 2.25606 55.6344 2.25606 55.3047 2.25606C55.3047 1.86878 55.316 1.51988 55.3025 1.16986C55.2742 0.459654 54.8113 -0.0224739 54.1971 -0.00102086C53.6009 0.0204321 53.1933 0.491269 53.1797 1.18567C53.173 1.51875 53.1797 1.85297 53.1797 2.25493C52.7676 2.25493 52.4153 2.25154 52.0631 2.25493C50.7318 2.26961 49.7947 3.19322 49.7902 4.53346C49.7789 7.28058 49.7868 10.0277 49.7857 12.7759C49.7857 13.0006 49.7857 13.2242 49.7857 13.5031H47.4134C47.4044 13.3021 47.3863 13.0853 47.3863 12.8685C47.384 10.2151 47.3355 7.5606 47.4021 4.90946C47.445 3.19435 46.2877 2.08895 44.7295 2.25267C44.5093 2.27638 44.2858 2.25606 43.9854 2.25606C43.9854 1.87104 43.9956 1.53908 43.9832 1.20712C43.9561 0.473203 43.5338 0.000108244 42.9184 0.000108244C42.3031 0.000108244 41.8853 0.47772 41.8672 1.20938C41.8593 1.52666 41.8661 1.84394 41.8661 2.25606C41.5127 2.25606 41.2022 2.25606 40.8917 2.25606C39.3753 2.26058 38.4765 3.14692 38.472 4.67347C38.4641 7.38333 38.4698 10.0932 38.4698 12.803C38.4698 13.0255 38.4698 13.2468 38.4698 13.5584H37.7065C26.7361 13.5584 15.7657 13.5584 4.79534 13.5584C2.56422 13.5584 0.962021 14.6152 0.255203 16.59C0.100517 17.0236 0.0169601 17.5058 0.0147018 17.9664C-0.00223541 22.1814 -0.00561523 26.3963 0.0101929 30.6113C0.0180969 32.8096 0.495705 34.9391 1.04219 37.0551C1.29624 38.0374 1.53786 39.022 1.78627 40.0054C2.25824 41.8764 3.31734 42.7446 5.26279 42.8587C5.37231 42.8654 5.47958 42.8858 5.64894 42.9072C5.64894 43.2369 5.64781 43.5531 5.64894 43.8681C5.66023 45.9197 7.05693 47.3457 9.11303 47.383C10.0908 47.4011 11.0698 47.3864 12.0487 47.3898C12.156 47.3898 12.2644 47.4135 12.4303 47.4327C12.4303 47.8109 12.4303 48.1632 12.4303 48.5166C12.4303 49.9845 12.4247 51.4523 12.4337 52.9201C12.4383 53.6586 12.9125 54.1813 13.529 54.1644C14.1296 54.1475 14.5576 53.6439 14.5587 52.9235C14.5632 49.8185 14.561 46.7134 14.561 43.6084C14.561 43.386 14.561 43.1647 14.561 42.8971C14.8139 42.8779 15.0137 42.8643 15.2136 42.8485C16.844 42.7187 17.9505 41.8255 18.3694 40.2482C18.7601 38.7781 19.1034 37.2956 19.4839 35.8221C19.8508 34.4039 20.6096 33.7953 22.0673 33.7931C28.2017 33.7841 34.3361 33.7829 40.4705 33.7931C42.0569 33.7965 42.9918 34.7528 42.9941 36.3415C43.0009 42.5696 42.9986 48.7989 42.9952 55.027C42.9952 56.1494 42.5774 56.5615 41.4574 56.5615C29.245 56.5615 17.0326 56.5683 4.82018 56.5547C3.32072 56.5536 2.04484 56.9928 1.06252 58.1456C0.369247 58.9597 3.05176e-05 59.9082 0.00228882 60.9898C0.00567627 62.8901 -0.00335693 64.7915 0.00454712 66.6918C0.0124512 68.4916 1.4577 69.9538 3.25523 69.9956C3.36815 69.9978 3.48106 69.9978 3.59397 69.9978C23.7846 69.9978 43.9764 69.9978 64.1671 69.9978C66.0211 69.9978 67.3658 68.9421 67.6854 67.2236C67.7429 66.9131 67.7384 66.5868 67.7384 66.2684C67.7407 55.7124 67.7407 45.1553 67.7407 34.5993C67.7407 34.3565 67.7407 34.1149 67.7407 33.7671L67.7418 33.7694ZM2.12613 27.1562V26.4833C2.12613 23.7542 2.125 21.0263 2.12613 18.2973C2.12726 16.6013 3.04297 15.6879 4.74905 15.6879C23.0394 15.6868 41.3298 15.6856 59.6202 15.6947C60.1791 15.6947 60.7538 15.7477 61.2946 15.8832C63.9209 16.5381 65.6089 18.7997 65.6101 21.6383C65.6134 36.4849 65.6123 51.3326 65.6112 66.1792C65.6112 67.5375 65.2736 67.8717 63.9062 67.8717C43.885 67.8717 23.8637 67.8717 3.84237 67.8717C3.61655 67.8717 3.38847 67.8819 3.16604 67.8548C2.6331 67.7905 2.17242 67.3964 2.15549 66.8714C2.1171 65.6745 2.14307 64.4754 2.14307 63.2176C2.42873 63.2176 2.6681 63.2176 2.90747 63.2176C15.7409 63.2176 28.5743 63.2198 41.4077 63.2097C42.0806 63.2097 42.7739 63.1826 43.4231 63.0256C47.1955 62.119 49.6095 59.1404 49.6344 55.254C49.6761 48.9129 49.6739 42.5708 49.6355 36.2297C49.6106 32.1593 47.1515 28.8126 43.4107 27.592C43.1702 27.513 42.9309 27.4306 42.6779 27.3459C44.4631 24.3109 44.3434 21.7772 42.3595 19.7674C40.5834 17.9687 37.8183 17.5701 35.6594 18.8144C34.5856 19.4331 33.7727 20.3014 33.2838 21.4497C32.4415 23.4245 32.7463 25.2932 33.9296 27.0998H29.2506C30.1449 25.8171 30.5389 24.4712 30.3515 22.9943C30.1607 21.4892 29.4539 20.2551 28.2706 19.3078C26.3861 17.7982 23.7688 17.6943 21.7398 19.0334C20.7349 19.6973 20.027 20.5939 19.5979 21.7207C18.8719 23.63 19.2434 25.3971 20.3804 27.1404C20.0405 27.1404 19.8169 27.1404 19.5945 27.1404C16.2264 27.1404 12.8583 27.1404 9.49016 27.1427C9.24627 27.1427 8.99787 27.1449 8.76075 27.1912C8.25604 27.2883 7.89586 27.7501 7.9128 28.239C7.93086 28.7539 8.34186 29.192 8.87479 29.2439C9.11755 29.2676 9.3637 29.2609 9.60758 29.2609C19.7876 29.2609 29.9676 29.2586 40.1476 29.2676C40.7844 29.2676 41.4359 29.2902 42.0547 29.4246C45.3584 30.1438 47.5105 32.8796 47.5173 36.3607C47.5286 42.608 47.5241 48.8554 47.5139 55.1027C47.5139 55.6255 47.4721 56.1618 47.3524 56.6688C46.7179 59.3526 44.4371 61.0847 41.5601 61.0858C28.633 61.0892 15.7048 61.087 2.77763 61.087C2.57552 61.087 2.37341 61.087 2.02 61.087C2.19275 60.5868 2.26839 60.1554 2.47728 59.8032C2.98764 58.9394 3.80286 58.6853 4.78292 58.6865C17.0145 58.7 29.245 58.6955 41.4766 58.6944C43.7099 58.6944 45.1123 57.309 45.1145 55.0733C45.1213 48.8633 45.1258 42.6543 45.1044 36.4442C45.1021 35.8164 45.0163 35.1525 44.7995 34.5688C44.0938 32.6685 42.5289 31.6783 40.3452 31.676C34.2672 31.6704 28.1893 31.6738 22.1113 31.676C21.8674 31.676 21.6224 31.6862 21.3785 31.7076C19.5414 31.8646 17.9607 33.2026 17.5045 34.9956C17.1161 36.5255 16.739 38.0577 16.3596 39.5899C16.1643 40.3792 15.7781 40.7258 14.9776 40.7281C11.7416 40.7382 8.50445 40.7371 5.26843 40.7281C4.47015 40.7258 4.07158 40.4266 3.89092 39.6667C3.35347 37.4006 2.77988 35.1412 2.3384 32.8559C2.1171 31.7088 2.15324 30.5119 2.06742 29.2609C2.86344 29.2609 3.53638 29.2733 4.2082 29.2541C4.46451 29.2473 4.74905 29.2236 4.96696 29.1073C5.38135 28.8849 5.59362 28.4965 5.48861 28.0177C5.37683 27.5051 5.03358 27.1822 4.50064 27.163C3.73398 27.1359 2.96619 27.1562 2.12613 27.1562ZM45.2162 4.40926V13.5178H40.6286V4.40926H45.2162ZM56.5298 4.41265V13.5189H51.9524V4.41265H56.5298ZM38.3738 27.1325C36.4611 27.1212 34.9368 25.5992 34.93 23.6921C34.9232 21.7828 36.5051 20.2032 38.4122 20.2156C40.3012 20.228 41.8469 21.7783 41.8593 23.6741C41.8718 25.5879 40.3046 27.1438 38.3738 27.1336V27.1325ZM24.7952 27.1325C22.8859 27.119 21.3548 25.589 21.3491 23.691C21.3435 21.7839 22.9299 20.2032 24.8358 20.2156C26.7598 20.228 28.2852 21.793 28.2615 23.7305C28.2389 25.6511 26.7146 27.1472 24.7952 27.1325ZM67.7621 22.502C68.2465 22.502 68.679 22.4603 69.1001 22.5122C69.7031 22.5856 70.1174 23.0169 70.122 23.6052C70.14 25.9176 70.1389 28.2289 70.122 30.5413C70.1174 31.0821 69.8092 31.4954 69.274 31.5981C68.7896 31.6918 68.2804 31.6602 67.7621 31.6851V22.502ZM12.3953 42.8892V45.2208C11.1646 45.2208 9.96664 45.2535 8.77204 45.2061C8.22894 45.1846 7.88232 44.7815 7.81118 44.2486C7.75246 43.8128 7.79988 43.3623 7.79988 42.8892H12.3965H12.3953Z" fill="#EB4438"/>
<path d="M53.1786 44.0521C53.1786 44.7657 53.1741 45.4805 53.1786 46.1941C53.1944 48.0221 54.3303 49.3996 56.1256 49.5881C57.1632 49.6965 58.2336 49.6819 59.2701 49.5622C60.8712 49.377 62.0455 48.004 62.0782 46.3849C62.1098 44.8256 62.1121 43.2652 62.0782 41.707C62.0398 39.9558 60.677 38.5692 58.9325 38.4868C58.0699 38.4461 57.2027 38.4461 56.3412 38.4868C54.555 38.5692 53.2159 39.9625 53.182 41.7431C53.1673 42.5132 53.1797 43.2844 53.1797 44.0544H53.1775L53.1786 44.0521ZM55.3115 42.9535C55.3115 42.5267 55.2968 42.1361 55.3149 41.7465C55.3442 41.1018 55.7146 40.6603 56.3525 40.6253C57.196 40.579 58.0439 40.5948 58.8885 40.6197C59.4203 40.6343 59.7997 40.9573 59.8855 41.4609C59.9668 41.9418 59.9036 42.4488 59.9036 42.9524H55.3115V42.9535ZM59.9589 45.1474C59.9589 45.5742 59.9724 45.9287 59.9555 46.2821C59.9205 47.0093 59.479 47.4767 58.7462 47.5072C57.9954 47.5377 57.2423 47.5332 56.4925 47.5072C55.9031 47.4869 55.4052 47.1075 55.3465 46.6062C55.2912 46.1331 55.3341 45.6476 55.3341 45.1485H59.9578L59.9589 45.1474Z" fill="#EB4438"/>
<path d="M51.8248 29.2573C55.4447 29.2415 57.9897 26.2166 57.4703 22.7401C57.3416 21.8786 56.8787 21.4179 56.2283 21.5071C55.5203 21.6031 55.1997 22.1642 55.3611 23.0528C55.5915 24.3265 55.2076 25.3889 54.2704 26.2595C53.1086 27.3389 51.3009 27.4315 49.9493 26.4955C48.6983 25.6294 48.1654 23.8319 48.7401 22.4239C49.3679 20.8883 50.9068 20.0076 52.4943 20.273C52.605 20.291 52.7168 20.3102 52.8286 20.3204C53.5681 20.387 54.0672 20.0472 54.153 19.4205C54.232 18.8492 53.8233 18.3558 53.1312 18.2146C51.748 17.9335 50.4303 18.1367 49.2098 18.8368C47.1729 20.0054 46.0709 22.3234 46.4457 24.5726C46.833 26.8929 48.6351 28.7356 50.9746 29.185C51.3043 29.2482 51.6475 29.2448 51.8225 29.2595L51.8248 29.2573Z" fill="#EB4438"/>
</g>
<defs>
<clipPath id="clip0_201_6">
<rect width="72.2661" height="70" fill="white" transform="matrix(-1 0 0 1 72.2661 0)"/>
</clipPath>
</defs>
</svg>
