<svg width="41" height="40" viewBox="0 0 41 40" fill="none" xmlns="http://www.w3.org/2000/svg">
<g id="phone-call" clip-path="url(#clip0_205_250)">
<path id="Vector" d="M25.9976 8.33335C27.6255 8.65096 29.1216 9.44712 30.2944 10.6199C31.4672 11.7927 32.2633 13.2888 32.5809 14.9167M25.9976 1.66669C29.3797 2.04241 32.5336 3.55698 34.9413 5.9617C37.3491 8.36642 38.8676 11.5184 39.2476 14.9M37.5809 28.2V33.2C37.5828 33.6642 37.4877 34.1236 37.3018 34.5489C37.1158 34.9742 36.8431 35.356 36.5011 35.6698C36.159 35.9836 35.7552 36.2225 35.3155 36.3712C34.8758 36.5199 34.4099 36.5751 33.9476 36.5334C28.819 35.9761 23.8926 34.2236 19.5643 31.4167C15.5373 28.8578 12.1232 25.4436 9.56428 21.4167C6.74757 17.0687 4.99468 12.1183 4.44761 6.96669C4.40596 6.5058 4.46073 6.04129 4.60844 5.60273C4.75615 5.16417 4.99356 4.76117 5.30555 4.41939C5.61755 4.07761 5.99728 3.80454 6.42059 3.61756C6.8439 3.43058 7.30151 3.33379 7.76428 3.33335H12.7643C13.5731 3.32539 14.3573 3.61182 14.9705 4.13924C15.5838 4.66666 15.9844 5.3991 16.0976 6.20002C16.3086 7.80013 16.7 9.37123 17.2643 10.8834C17.4885 11.4799 17.537 12.1282 17.4041 12.7515C17.2712 13.3748 16.9624 13.9469 16.5143 14.4L14.3976 16.5167C16.7702 20.6893 20.225 24.1441 24.3976 26.5167L26.5143 24.4C26.9674 23.9519 27.5395 23.6431 28.1628 23.5102C28.7861 23.3772 29.4344 23.4258 30.0309 23.65C31.5431 24.2143 33.1142 24.6056 34.7143 24.8167C35.5239 24.9309 36.2633 25.3387 36.7918 25.9625C37.3204 26.5863 37.6012 27.3826 37.5809 28.2Z" stroke="#EB4438" stroke-width="2" stroke-linecap="round" stroke-linejoin="round"/>
</g>
<defs>
<clipPath id="clip0_205_250">
<rect width="40" height="40" fill="white" transform="translate(0.914062)"/>
</clipPath>
</defs>
</svg>
