<svg width="20" height="20" viewBox="0 0 20 20" fill="none" xmlns="http://www.w3.org/2000/svg">
<rect width="20" height="20" fill="#F5F5F5"/>
<g id="home" clip-path="url(#clip0_0_1)">
<rect width="1920" height="4138" transform="translate(-1570 -10)" fill="white"/>
<g id="nav" filter="url(#filter0_d_0_1)">
<g id="Frame 4">
<rect width="1920" height="40" transform="translate(-1570 -10)" fill="#FFB800"/>
<g id="Group 5">
<g id="twitter">
<path id="Vector" d="M19.1668 2.49999C18.3688 3.06289 17.4853 3.49341 16.5502 3.77499C16.0483 3.19791 15.3813 2.7889 14.6394 2.60326C13.8974 2.41762 13.1164 2.46432 12.4019 2.73703C11.6874 3.00975 11.0739 3.49532 10.6443 4.12808C10.2148 4.76085 9.98991 5.51027 10.0002 6.27499V7.10832C8.53569 7.14629 7.08456 6.8215 5.776 6.16286C4.46745 5.50422 3.34209 4.53218 2.50016 3.33332C2.50016 3.33332 -0.833171 10.8333 6.66683 14.1667C4.9506 15.3316 2.90613 15.9158 0.833496 15.8333C8.3335 20 17.5002 15.8333 17.5002 6.24999C17.4994 6.01787 17.4771 5.78632 17.4335 5.55832C18.284 4.71957 18.8842 3.66058 19.1668 2.49999Z" stroke="#0B2239" stroke-width="1.5" stroke-linecap="round" stroke-linejoin="round"/>
</g>
</g>
</g>
</g>
</g>
<defs>
<filter id="filter0_d_0_1" x="-1610" y="-46" width="2000" height="200" filterUnits="userSpaceOnUse" color-interpolation-filters="sRGB">
<feFlood flood-opacity="0" result="BackgroundImageFix"/>
<feColorMatrix in="SourceAlpha" type="matrix" values="0 0 0 0 0 0 0 0 0 0 0 0 0 0 0 0 0 0 127 0" result="hardAlpha"/>
<feOffset dy="4"/>
<feGaussianBlur stdDeviation="20"/>
<feComposite in2="hardAlpha" operator="out"/>
<feColorMatrix type="matrix" values="0 0 0 0 0 0 0 0 0 0 0 0 0 0 0 0 0 0 0.1 0"/>
<feBlend mode="normal" in2="BackgroundImageFix" result="effect1_dropShadow_0_1"/>
<feBlend mode="normal" in="SourceGraphic" in2="effect1_dropShadow_0_1" result="shape"/>
</filter>
<clipPath id="clip0_0_1">
<rect width="1920" height="4138" fill="white" transform="translate(-1570 -10)"/>
</clipPath>
</defs>
</svg>
